<svg width="304" height="108" viewBox="0 0 304 108" fill="none" xmlns="http://www.w3.org/2000/svg">
<path d="M41.128 26.2609C41.8803 25.3431 42.6326 24.2733 43.3849 23.2023C45.4911 19.993 48.3496 18.3093 51.3564 17.3939C52.2594 17.0876 53.6133 17.5459 54.3656 18.0054C55.7195 18.6169 56.9227 19.0752 58.7288 18.6169C60.5336 18.3105 61.7368 18.6169 62.1889 19.6866C62.1889 20.2981 61.8875 21.3691 62.0382 21.6742C62.1889 22.7452 62.1889 23.663 61.2859 25.0392C60.9845 25.1911 61.1352 25.4975 61.1352 25.8038C60.9845 29.3182 61.8875 26.2621 60.3829 29.779C59.6306 31.4602 59.4799 32.9883 58.8783 34.3644C51.6591 52.8655 59.1797 43.6922 65.1969 35.5886C65.7985 33.9061 66.8522 32.53 68.2061 31.1539C70.3123 28.0953 72.8694 25.3431 74.9756 22.1338C78.4357 17.5459 82.4962 13.4175 87.0088 10.2082C88.6642 9.13715 90.1688 7.45592 91.6734 7.76103C93.178 7.91421 94.6814 8.5257 95.7351 9.44353C96.7876 10.3614 97.6906 11.4311 98.2922 12.6528C98.5936 12.806 98.7431 12.9592 98.8938 12.9592C101 13.4175 101 15.5582 101 17.5458C100.849 18.0054 100.549 18.4637 100.549 18.77C98.5936 23.2023 96.6369 27.3306 96.0353 31.459C95.7351 33.5998 95.4337 35.8937 95.283 37.8801C94.9828 39.8677 94.8321 42.1616 94.3812 44.4556C94.0798 46.4432 94.0798 48.4308 92.4257 50.4172C92.4257 50.5703 92.275 50.7235 92.4257 51.0286C93.4782 51.9464 91.9736 53.0174 91.5227 54.0872C91.372 54.5455 91.0718 55.1582 91.372 55.6165C91.8228 57.2978 91.6734 58.8271 90.3195 60.8147C90.3195 60.9679 90.1688 61.2742 90.1688 61.7325C89.7179 63.1086 89.4165 64.3316 89.115 65.5558C89.2658 65.5558 89.2658 65.4026 89.8673 65.0962C89.4165 67.237 86.8606 69.0726 87.6129 71.0602C88.6654 71.0602 88.5147 72.13 88.2145 73.5061C87.4622 76.5647 87.1608 79.4702 85.8069 82.6807C85.9576 82.8339 85.8069 82.987 85.9576 83.139C86.7099 84.6683 84.9051 86.8091 85.356 88.7967C85.5067 90.0209 84.6037 91.5489 85.356 93.0782C85.356 93.8429 84.7544 95.0658 83.7006 96.1368C83.4005 96.7483 82.6482 97.2066 82.0466 97.8181C81.1436 99.9589 80.9928 100.112 79.0373 100.265C78.5864 100.265 78.1343 100.418 77.2325 100.572C76.1788 100.724 75.4265 100.724 74.9756 99.9589C74.8249 99.6538 74.374 99.5005 73.7724 99.3474C71.8169 98.8891 71.2141 97.0559 72.1171 95.0658C73.6217 89.5626 74.2233 84.6696 74.9756 79.4727C75.4265 78.2485 75.7279 76.7204 76.0281 75.4962C76.6309 73.6618 77.0818 71.521 77.9848 69.3803C77.9848 69.9917 77.6834 70.7564 77.6834 71.521C78.1343 71.2159 78.1343 71.2159 78.285 71.2159C78.5864 70.1449 79.0373 69.0751 79.188 67.8509C79.6389 65.0987 80.9916 62.1933 80.6926 59.5955C80.5419 59.4423 80.5419 59.1371 80.6926 58.984C82.196 57.4546 80.8421 55.9253 82.0466 54.3985C82.4975 53.9377 82.3467 53.3275 82.4975 53.0224C82.196 51.3399 82.7989 49.6575 83.8514 47.9762C83.8514 47.6699 83.8514 47.3648 83.8514 47.2116C83.8514 47.2116 83.8514 47.2116 83.7006 47.0584C82.6482 49.3523 81.7452 51.6463 80.8421 53.9377C80.6927 53.9377 80.542 53.9377 80.3913 53.9377C82.6482 40.4841 83.2498 38.8017 73.0214 53.3263C72.8706 53.1731 72.7199 53.0212 72.7199 52.868C72.4198 52.868 72.269 53.0212 72.269 53.0212C72.269 53.4795 71.9676 53.9378 71.8181 54.3973C71.0658 56.3849 70.3135 57.1495 68.358 58.3712C67.9059 58.5244 67.6057 58.9827 67.6057 59.2891C66.8534 59.9005 66.552 60.512 66.2518 61.1235C64.5965 65.8633 54.8178 79.9297 51.9605 84.6683C50.7573 86.8091 48.9525 88.032 46.8463 90.0208C46.8463 89.103 46.6956 88.4915 47.1464 87.8801C46.997 87.8801 46.8463 87.8801 46.8463 87.8801C46.2447 88.9498 45.4924 89.8677 44.7401 90.9375C44.7401 90.7855 44.5894 90.7855 44.4386 90.6323C43.5369 92.7731 42.0322 93.3846 40.3769 93.8429C37.3702 94.9139 34.9625 95.0659 32.5561 94.3025C31.0515 93.8429 29.096 93.6897 27.8916 92.62C26.8391 91.8553 26.6884 92.0084 27.7421 90.1728C29.2443 87.7269 30.5982 85.2797 32.2535 83.139C33.9088 80.6931 34.9613 78.7068 34.6611 76.566C37.9705 59.5942 47.2959 38.0358 34.9613 57.6066C33.4567 60.0538 31.9545 62.806 29.8483 65.0974C25.0343 75.6469 13.1506 91.2438 11.3446 102.558C11.1951 103.473 10.8937 104.699 10.2921 105.922C9.38905 107.298 8.63675 107.451 7.88567 106.839C7.43355 106.686 7.28284 106.686 7.13336 106.533C6.38105 104.699 4.87644 104.392 2.92094 104.087C1.71529 103.934 0.965436 103.169 0.0624242 102.71C-0.0882819 102.558 0.0624256 101.793 0.213132 101.487C3.07165 96.29 4.27484 91.397 5.47804 86.3508C5.92893 84.5164 5.92894 82.5275 6.68124 80.5399C7.13336 78.246 10.8937 69.2258 11.4953 66.9331C12.0969 64.486 12.6997 62.0401 13.3013 59.593C14.5045 54.8531 15.5557 50.1145 16.9097 45.3747C17.0604 44.4568 17.5125 43.3858 17.5125 42.3161C17.6607 38.7992 18.8664 35.2835 20.2203 31.6135C20.6712 30.5437 20.8219 29.3195 21.4235 28.0965C21.7237 27.0268 22.1758 25.8051 22.6267 24.7328C23.0776 23.663 23.6804 23.2035 24.4315 23.5099C25.1838 24.2745 26.2375 24.886 26.9898 25.6506C27.4407 26.2621 27.29 27.18 27.4407 28.0965C26.9898 31.1552 26.2375 34.2113 25.3345 37.2699C21.8744 54.2417 34.8106 34.824 36.6166 32.073C37.9693 30.0829 39.7741 28.2485 41.128 26.2609ZM32.8551 87.2661C33.0058 86.9598 33.1565 86.6534 33.6074 85.89C33.6074 85.7368 33.6074 85.5837 33.6074 85.1254C33.3072 85.7368 32.8551 86.042 32.7044 86.1951C32.7044 86.6534 32.7044 86.9598 32.5549 87.2661C32.7044 87.2661 32.7044 87.2661 32.8551 87.2661ZM53.4626 57.451C54.2149 56.3812 54.9672 55.005 55.7196 53.6289C56.6226 51.4881 57.8257 49.3474 60.0827 47.5117C60.5336 46.9002 60.9845 45.9837 60.9845 45.219C58.7288 47.2066 53.916 54.6975 52.4114 58.5207C52.861 58.2156 53.1637 57.9105 53.4626 57.451ZM68.2049 36.8116C68.2049 36.352 68.5051 35.8937 68.8065 35.5886C71.0634 33.2947 71.8157 30.5424 73.6205 27.9421C71.8157 29.4714 66.8522 36.6584 65.948 38.7992C67.1512 38.3409 67.9035 37.5762 68.2049 36.8116Z" fill="white"/>
<path d="M100.751 61.227C99.0933 58.451 98.3411 55.0583 97.8882 51.5123C97.4366 48.8908 98.1901 46.4226 99.5462 43.9569C99.6971 43.6479 99.9978 43.3401 100.6 43.1856C101.807 42.1066 103.312 41.1809 105.121 40.1007C106.477 39.1762 108.284 39.0217 109.943 39.3294C111.148 39.3294 114.461 42.4144 115.215 43.0311C116.119 43.8024 117.023 44.7281 118.078 45.3449C119.434 46.5783 120.338 47.9663 121.092 49.9698C121.544 51.2045 121.843 52.2835 122.448 53.3638C122.9 54.7518 123.051 56.2918 123.351 57.8343C123.502 59.2223 123.502 60.3024 123.804 61.5359C123.954 61.6904 123.954 61.6905 123.954 61.9982C123.502 59.5313 124.105 63.0784 123.954 63.5407C123.804 65.3922 124.256 67.0879 123.804 68.7849C123.351 69.7081 124.256 70.7896 125.461 70.7896C132.845 70.3274 135.705 71.4064 142.938 70.1729C143.692 69.8639 144.445 69.4016 145.349 68.9381C145.651 68.7849 146.102 68.4759 146.404 68.3214C146.705 68.7849 146.555 69.4016 146.404 69.7094C145.951 70.4806 147.458 70.7896 146.856 71.4064C142.337 76.3416 128.475 76.1871 123.052 76.1871C122.901 76.1871 122.75 76.1871 122.599 76.1871C122.147 76.1871 121.696 76.3416 121.696 76.6506C121.696 76.9583 121.545 77.1128 121.394 77.4205C120.942 80.0433 119.586 82.5103 118.531 85.133C117.777 86.9832 116.723 88.3712 115.668 89.7579C115.065 90.6837 114.463 91.7626 113.561 92.3794C113.259 92.5339 112.956 92.8429 112.505 93.1506C112.203 93.3051 111.752 93.6129 111.601 94.0764C110.396 95.4644 109.04 96.5434 107.382 97.0069C107.081 97.0069 106.328 97.3147 105.876 97.6237C103.766 98.2404 101.657 98.0859 99.6983 97.7781C96.9862 97.4691 95.1774 95.4644 93.6704 92.8429C93.2188 91.6082 92.7672 90.067 92.3143 88.6777C92.0137 85.9017 91.8627 83.127 92.1646 80.1978C92.4653 77.2673 93.3697 74.4913 94.7258 71.7153C96.0818 68.3214 98.0404 65.3922 100.301 62.6149C100.752 62.4617 100.752 62.1527 100.903 61.6917C100.902 61.536 100.902 61.3815 100.751 61.227ZM118.681 55.0583C118.379 53.208 118.078 51.82 117.626 50.123C117.174 48.5805 116.571 47.3471 115.517 46.4213C114.914 45.8046 114.461 45.0334 113.558 44.5711C112.654 43.7999 111.9 43.1831 110.845 42.5664C109.037 41.0239 105.724 44.2621 104.667 45.3424C100.599 51.2033 104.518 59.221 108.284 63.385C112.654 72.1764 120.638 69.0914 118.83 58.76C119.132 57.5265 119.132 56.1385 118.681 55.0583ZM105.272 85.1318C105.121 85.9005 105.121 86.8275 105.121 87.5987C104.819 87.9077 105.121 88.061 105.272 88.37C105.573 89.1412 106.174 89.9124 106.929 90.2202C107.08 90.2202 107.08 90.2202 107.231 90.0669C107.381 89.9124 107.682 89.758 107.833 89.6035C110.395 86.8275 112.201 83.2803 113.708 79.7343C114.461 78.5008 114.763 77.1128 115.215 76.0326C111.749 74.4913 110.094 75.8794 108.133 78.5008C106.477 80.9653 106.174 82.3533 105.272 85.1318Z" fill="white"/>
<path d="M186.726 70.5207C185.833 71.7244 184.94 73.0787 184.048 74.2811C183.006 75.7863 182.114 77.2915 181.37 78.9461C181.37 79.0969 181.37 79.3984 181.222 79.3984C180.18 80.9023 179.289 82.4062 178.247 83.6099C176.61 85.4165 175.124 87.0712 173.487 88.7271C171.85 90.2322 170.215 91.4359 168.429 92.4899C167.389 93.0918 162.034 95.9513 160.846 95.9513C159.507 96.0996 154.598 95.499 153.261 95.9513C151.179 96.4023 146.716 94.4461 144.782 93.6936C142.7 92.7902 140.766 91.7374 138.983 90.383C136.157 88.1253 134.669 84.9666 134.224 80.602C133.925 78.044 133.925 75.4848 134.224 72.9268C134.373 71.4216 134.669 69.9165 135.116 68.4138C135.562 67.3597 135.859 66.3069 136.306 65.2528C137.347 61.9422 139.132 59.2334 140.617 56.3751C141.064 55.7733 141.361 55.1715 141.808 54.5697C142.998 52.763 144.187 51.1083 145.675 49.9035C147.46 48.3996 149.096 46.7437 151.03 45.3905C152.071 44.638 153.112 44.3376 154.154 44.3376C154.6 44.3376 155.046 44.1869 155.493 44.0361C156.682 43.4343 157.872 43.1328 158.911 43.2835C159.06 43.4343 159.06 43.4343 159.06 43.2835C160.846 43.1328 162.481 43.7346 163.969 44.7887C164.118 44.7887 164.267 44.9395 164.415 44.9395C164.564 44.9395 164.713 44.9394 164.862 44.7887C165.308 44.4872 165.606 44.3376 166.051 44.6379C166.497 45.089 166.795 45.5413 166.646 46.2939C166.349 47.0464 166.497 47.6482 166.795 48.25C166.944 48.4008 166.795 48.7011 166.944 48.8518C166.646 49.3029 166.349 49.7552 166.051 50.2062C166.2 51.1096 166.349 52.0117 166.646 52.915C166.944 54.2694 167.092 55.7745 167.092 57.1289C167.092 57.8814 167.092 58.6341 166.945 59.3866C166.351 62.0954 165.458 64.6534 164.416 67.0618C163.97 68.1147 163.375 68.7165 162.482 68.8673C162.186 68.8673 161.888 69.018 161.591 69.018C161.144 69.018 160.847 68.8673 160.698 68.7166C159.954 67.964 158.912 67.5129 158.021 67.0618C157.872 66.9111 157.723 66.9111 157.574 66.7604C157.128 66.4588 156.831 66.0077 156.979 65.2552C157.128 64.5026 157.277 63.75 157.426 63.1482C158.318 60.1404 159.061 57.2809 160.252 54.4214C160.252 54.2706 160.252 53.9703 160.4 53.518C160.103 53.8195 159.954 53.8196 159.805 53.9703C158.912 55.9265 157.426 57.4316 156.235 59.0851C155.046 60.741 154.006 62.5464 153.113 64.5026C151.924 67.0618 150.734 69.4691 149.543 72.0258C148.354 74.2836 147.61 76.8416 146.866 79.4008C146.569 80.1534 146.569 80.9047 146.42 81.8081C146.271 82.8622 146.42 83.9151 146.866 84.9692C147.313 85.8713 147.759 86.9253 148.205 87.977C148.503 88.5788 148.948 89.1806 149.394 89.7836C150.138 90.6845 153.857 89.1806 154.898 89.031C158.171 88.5788 165.16 85.5697 167.986 83.0105C170.217 81.0543 174.382 78.0464 176.316 75.7887C177.06 74.8854 177.803 73.9821 178.547 73.08C179.886 71.2733 184.051 68.2643 185.389 66.3093C186.131 65.2552 188.511 63.9008 189.256 62.8479C189.702 62.2461 189.256 64.9549 190 64.5026C189.7 65.8533 187.617 69.4654 186.726 70.5207Z" fill="white"/>
<path d="M209.715 91.9744C210.473 93.5049 211.383 95.0354 212.292 96.2594C212.898 97.4845 213.808 98.0965 214.869 98.0965C216.688 98.5552 218.205 98.2485 219.721 97.6366C221.236 97.1779 226.692 92.7397 228.36 91.9744C228.966 91.669 235.181 84.9374 235.939 84.4775C238.365 81.8764 240.184 78.6621 242.154 75.4502C243.671 73.0023 244.883 70.2491 246.399 67.7988C246.703 67.1868 247.005 66.5749 247.309 65.8096C247.459 65.0444 247.612 64.5856 247.764 63.9724C248.522 66.1149 250.492 64.4324 249.886 65.9629C249.582 66.7282 249.432 67.4922 249.432 67.9521C249.28 69.4826 247.005 72.5412 246.551 73.6143C245.793 75.7568 245.187 77.746 243.973 79.7339V80.0405C243.064 81.8751 241.701 83.8643 240.791 85.8535C239.731 87.0774 232.606 95.0342 231.394 96.1073C230.333 97.0234 229.575 97.3312 228.816 97.6353C226.543 98.8618 220.632 103.757 218.358 104.369C216.843 104.675 215.175 105.135 213.659 105.135C211.234 105.287 208.808 104.369 207.142 102.686C206.384 101.767 205.474 100.696 204.716 99.6258C203.049 96.718 200.927 93.5037 199.412 90.1373C198.048 88.4534 197.592 87.0762 196.228 89.0666C195.925 89.5253 195.925 90.4439 195.621 90.9026C195.015 91.8211 194.561 92.7384 194.105 93.657C193.803 94.7288 193.197 95.7995 192.741 96.5647C192.135 97.1767 191.68 97.4833 190.922 97.33C190.316 97.33 189.406 97.33 188.648 98.0953C185.465 99.4725 184.254 99.4725 181.98 97.4833C179.099 95.6461 178.039 92.4331 177.434 89.0666C177.282 88.76 177.282 88.6067 177.282 88.1481C177.736 85.8523 177.282 83.4057 177.13 80.9553C176.826 77.8968 177.13 74.8357 177.282 71.7746C177.434 70.3974 177.736 69.1735 177.736 67.7963C177.888 63.5113 179.1 59.3809 180.162 55.2492C180.92 52.8001 181.677 50.199 182.587 47.9032C183.951 43.6207 185.77 39.3357 187.59 35.0508C188.651 33.2136 189.257 31.2244 190.319 29.5418C192.895 23.8796 196.229 18.372 199.261 13.3217C201.535 10.1074 203.658 7.04881 206.235 4.59847C207.295 3.68115 208.357 2.60929 209.569 1.69197C210.631 0.773401 211.995 0.773419 213.36 0.620117C213.51 0.620117 213.814 1.07877 214.118 1.23208C214.873 2.9159 216.695 3.98651 218.211 5.21043C220.787 7.20087 223.062 9.6487 225.183 13.0151C226.092 14.2403 226.698 16.2295 226.698 18.0654C226.698 18.372 226.698 18.9839 226.698 19.4426C226.547 20.2079 225.637 20.8198 225.183 20.8198C224.879 20.5145 224.425 20.3611 224.121 20.2078C223.819 19.7492 223.211 19.4426 222.909 18.9839C221.392 17.76 220.18 17.9121 218.512 19.5959C217.148 20.8198 215.783 22.5037 214.267 23.8809C214.118 24.4928 213.661 24.9515 213.359 25.4114C211.842 27.8593 210.174 30.0005 208.658 32.143C208.658 32.4496 208.356 32.9083 208.204 33.2136C207.598 34.7441 206.991 36.2746 205.93 37.9585C204.869 40.101 203.657 42.2435 202.595 44.6901C201.989 45.7619 201.534 46.6792 200.928 47.9032C199.714 50.8109 198.199 53.872 196.986 56.9331C195.319 60.6036 193.803 64.4311 192.741 68.255C192.59 69.1735 192.287 69.7855 192.135 70.5507C191.68 72.5399 191.377 74.6824 190.77 76.3662C190.164 81.2632 191.529 81.1099 192.59 79.4248C194.863 75.9051 196.531 71.7747 199.107 68.255C201.685 64.5844 204.564 60.9114 207.748 57.8503C211.083 55.2492 214.115 54.3306 217.601 54.9426C218.356 54.9426 218.965 55.4025 219.419 56.3199C219.571 56.7798 219.723 56.933 220.026 57.3917C221.238 59.0743 221.694 60.9114 221.694 63.0539C221.694 66.7269 221.238 70.3974 220.026 74.2238C219.874 74.8357 219.874 75.1423 219.723 75.7543C218.965 77.7434 218.207 79.4248 216.843 81.2619C215.933 82.0272 215.327 82.9445 214.569 83.5552C213.507 84.935 212.294 85.851 211.082 86.3109C210.476 86.463 209.718 86.7696 209.111 87.0749C208.656 87.0749 208.656 87.6882 208.201 87.8402C208.351 89.6798 209.109 90.9038 209.715 91.9744ZM177.731 77.7447C177.731 77.898 177.731 77.898 177.731 78.2034C177.731 79.1219 177.731 80.0405 177.731 80.9579C178.035 79.122 178.035 78.9687 177.731 77.7447ZM205.318 68.2562C204.712 69.7867 204.258 71.1639 203.5 72.2358C202.894 73.7651 201.984 74.837 201.529 76.2142C199.861 78.662 204.559 77.1327 205.47 76.2142C209.109 73.4597 211.686 69.1747 213.655 64.4324C216.081 56.4744 213.201 57.2397 209.41 62.1366C207.745 63.9712 206.228 66.1137 205.318 68.2562Z" fill="white"/>
<path d="M256.106 82.5138C253.57 83.9119 250.289 83.7575 248.648 84.2231C247.305 84.2231 243.874 83.4463 242.831 82.8251C239.101 80.4946 238.952 79.4078 238.205 74.2812C237.758 73.0388 238.056 70.2427 238.952 67.7566C239.698 64.1836 247.752 51.2913 249.095 48.0296C249.841 46.3204 250.587 44.6124 251.78 42.7475C252.23 41.6607 252.975 41.3494 253.721 40.8838C254.764 40.4182 255.807 40.4182 256.553 39.6414C258.791 38.399 257.15 37.3109 258.642 37.1553C260.134 37.1553 261.179 37.7765 261.925 38.8646C262.521 39.0202 262.521 39.797 263.118 40.4182C263.565 40.7282 263.416 41.3494 263.416 41.9719C262.521 45.8535 259.238 53.1549 258.345 56.8835C257.599 57.9703 257.3 62.32 257.002 63.2525C256.704 64.8049 256.406 66.2017 255.66 67.7553C255.361 68.9978 254.615 71.3282 255.361 71.9495C255.958 72.7263 256.256 75.368 257.151 75.0568C260.732 73.0375 265.505 72.8819 267.444 70.3983C268.638 68.689 269.384 69.4659 270.577 67.9122C271.621 66.8254 271.92 65.893 272.367 65.1161C273.262 63.0969 273.412 63.7181 274.158 62.0088C275.052 59.9896 276.394 58.1259 277.589 56.4167C278.036 55.0186 278.633 54.0861 279.529 52.8437C281.021 52.3781 280.871 52.5338 281.468 52.6881C283.706 52.5338 281.765 52.6881 283.108 53.465C283.407 54.0862 283.108 54.7086 283.556 55.0186C282.512 57.9703 282.363 61.0776 281.021 64.4949C280.572 65.5817 280.871 64.4949 279.976 65.893C280.125 66.8254 279.529 68.2234 278.932 69.4659C278.334 70.8639 278.484 72.5706 277.589 73.8156C276.395 79.0953 275.798 81.8914 275.798 82.5126C275.351 84.5331 280.572 85.9312 285.792 84.2219C289.224 82.6682 295.339 76.6117 298.174 71.7963C299.219 69.9314 300.114 68.0678 301.754 65.5817C303.247 62.7856 304.44 67.4466 303.843 68.5334C303.396 69.3102 303.097 69.9315 302.948 70.3983C301.754 71.3295 300.412 76.2992 299.369 77.2316C299.07 77.5416 299.22 78.0085 298.474 78.3185C296.535 80.9602 292.655 85.3099 289.673 87.7948C288.33 88.106 288.181 88.5716 286.838 89.1928C285.793 90.2809 285.496 90.4352 284.153 91.212C283.108 91.6789 282.96 91.8333 282.511 92.3002C281.318 91.9889 281.021 92.4532 280.572 92.7657C277.738 94.475 265.655 95.0962 264.759 89.814C264.013 84.9987 263.269 82.3595 264.611 77.0773C264.611 76.6117 264.611 76.6117 264.611 76.4561C262.521 78.6322 258.642 80.8071 256.106 82.5138Z" fill="white"/>
</svg>
