<svg width="25" height="25" viewBox="0 0 25 25" fill="none" xmlns="http://www.w3.org/2000/svg">
<rect width="25" height="25" fill="#111111"/>
<g id="Available Sells" clip-path="url(#clip0_185_181)">
<rect width="1440" height="1024" transform="translate(-54 -443)" fill="white"/>
<rect id="Rectangle 6266" x="-54" y="-443" width="1440" height="1024" fill="url(#paint0_linear_185_181)"/>
<g id="Sidebar Menu">
<g id="Menu">
<path id="Available Buys Icon" d="M12.5 20.1667C17.7843 20.1667 22.0833 15.8676 22.0833 10.5833C22.0833 5.29908 17.7843 1 12.5 1C7.21575 1 2.91667 5.29908 2.91667 10.5833C2.91667 15.8676 7.21575 20.1667 12.5 20.1667ZM12.5 1.95833C17.2552 1.95833 21.125 5.82713 21.125 10.5833C21.125 15.3395 17.2552 19.2083 12.5 19.2083C7.74475 19.2083 3.875 15.3395 3.875 10.5833C3.875 5.82713 7.74475 1.95833 12.5 1.95833ZM8.66667 8.30825C8.66667 6.92058 9.79558 5.79167 11.1833 5.79167H12.0208V4.35417C12.0208 4.08967 12.2355 3.875 12.5 3.875C12.7645 3.875 12.9792 4.08967 12.9792 4.35417V5.79167H13.8666C14.8048 5.79167 15.6788 6.29575 16.1484 7.10938C16.2816 7.33746 16.203 7.63167 15.974 7.76392C15.743 7.89617 15.4507 7.81854 15.3194 7.58854C15.0204 7.07104 14.4627 6.75 13.8666 6.75H11.1833C10.3246 6.75 9.625 7.44862 9.625 8.30825C9.625 9.07779 10.176 9.72562 10.936 9.84542L14.2164 10.3744C15.443 10.5699 16.3333 11.6155 16.3333 12.8584C16.3333 14.2461 15.2044 15.375 13.8167 15.375H12.9792V16.8125C12.9792 17.077 12.7645 17.2917 12.5 17.2917C12.2355 17.2917 12.0208 17.077 12.0208 16.8125V15.375H11.1334C10.1952 15.375 9.32121 14.8709 8.85162 14.0573C8.71842 13.8292 8.797 13.535 9.02604 13.4028C9.25508 13.2686 9.54833 13.3481 9.68058 13.5781C9.97958 14.0956 10.5373 14.4167 11.1334 14.4167H13.8167C14.6754 14.4167 15.375 13.718 15.375 12.8584C15.375 12.0889 14.824 11.441 14.064 11.3212L10.7836 10.7923C9.55696 10.5968 8.66667 9.55121 8.66667 8.30825ZM24 21.125C24 22.7101 22.7101 24 21.125 24H3.875C2.28992 24 1 22.7101 1 21.125C1 19.5399 2.28992 18.25 3.875 18.25H4.35417C4.61867 18.25 4.83333 18.4647 4.83333 18.7292C4.83333 18.9937 4.61867 19.2083 4.35417 19.2083H3.875C2.81796 19.2083 1.95833 20.068 1.95833 21.125C1.95833 22.182 2.81796 23.0417 3.875 23.0417H21.125C22.182 23.0417 23.0417 22.182 23.0417 21.125C23.0417 20.068 22.182 19.2083 21.125 19.2083H20.6458C20.3813 19.2083 20.1667 18.9937 20.1667 18.7292C20.1667 18.4647 20.3813 18.25 20.6458 18.25H21.125C22.7101 18.25 24 19.5399 24 21.125Z" fill="#FCB22E" stroke="#FCB22E" stroke-width="0.6"/>
</g>
</g>
</g>
<defs>
<linearGradient id="paint0_linear_185_181" x1="-54" y1="-443" x2="1386" y2="581" gradientUnits="userSpaceOnUse">
<stop offset="0.27"/>
<stop offset="0.415" stop-color="#57689B"/>
<stop offset="0.515" stop-color="#5B7D86"/>
<stop offset="0.735"/>
<stop offset="0.86"/>
</linearGradient>
<clipPath id="clip0_185_181">
<rect width="1440" height="1024" fill="white" transform="translate(-54 -443)"/>
</clipPath>
</defs>
</svg>
