<svg width="25" height="25" viewBox="0 0 25 25" fill="none" xmlns="http://www.w3.org/2000/svg">
<path d="M23.2204 10.2479C22.7411 9.81667 22.1276 9.58667 21.4853 9.625C20.843 9.65375 20.2487 9.93167 19.8173 10.4108L16.2418 14.34C15.9446 13.2762 14.9668 12.5 13.8069 12.5H4.3551C2.505 12.5 1 14.0046 1 15.8542V20.6458C1 22.4954 2.505 24 4.3551 24H10.0684C12.6662 24 15.1394 22.8883 16.8648 20.9525L23.3929 13.6308C24.2652 12.6533 24.1886 11.1392 23.2204 10.2479ZM22.6836 12.9887L16.1555 20.3104C14.6121 22.045 12.3978 23.0417 10.0684 23.0417H4.3551C3.03223 23.0417 1.9586 21.9683 1.9586 20.6458V15.8542C1.9586 14.5317 3.03223 13.4583 4.3551 13.4583H13.8069C14.6792 13.4583 15.379 14.1675 15.379 15.03C15.379 15.8062 14.7943 16.4771 14.037 16.5825L8.13199 17.2917C7.87317 17.3204 7.68145 17.56 7.71021 17.8283C7.73896 18.0871 7.96903 18.2883 8.24702 18.25L14.1616 17.5408C15.1394 17.3971 15.935 16.6975 16.2226 15.7967L20.5267 11.0625C20.7855 10.775 21.1402 10.6121 21.5332 10.5929C21.9167 10.5738 22.2905 10.7079 22.5781 10.9667C23.1629 11.5033 23.2108 12.4138 22.6836 12.9983V12.9887ZM5.793 4.105C5.793 2.91667 6.76119 1.95833 7.94027 1.95833H8.66881V1.47917C8.66881 1.21083 8.8797 1 9.14811 1C9.41652 1 9.62741 1.21083 9.62741 1.47917V1.95833H10.1546C11.0941 1.95833 11.9664 2.46625 12.4361 3.28083C12.5703 3.51083 12.4936 3.79833 12.2636 3.9325C12.0335 4.06667 11.7363 3.99 11.6117 3.76C11.3145 3.2425 10.7586 2.91667 10.1546 2.91667H7.94027C7.27884 2.91667 6.75161 3.45333 6.75161 4.105C6.75161 4.6225 7.07753 5.07292 7.56642 5.23583L11.0366 6.39542C11.9185 6.6925 12.5032 7.50708 12.5032 8.43667C12.5032 9.625 11.535 10.5833 10.3559 10.5833H9.62741V11.0625C9.62741 11.3308 9.41652 11.5417 9.14811 11.5417C8.8797 11.5417 8.66881 11.3308 8.66881 11.0625V10.5833H8.14158C7.20215 10.5833 6.32982 10.0754 5.86011 9.26083C5.7259 9.03083 5.80259 8.74333 6.03265 8.60917C6.26272 8.475 6.55989 8.55167 6.6845 8.78167C6.98167 9.29917 7.53766 9.625 8.14158 9.625H10.3559C11.0174 9.625 11.5446 9.08833 11.5446 8.43667C11.5446 7.91917 11.2187 7.46875 10.7298 7.30583L7.25966 6.14625C6.37775 5.84917 5.793 5.03458 5.793 4.105Z" fill="#FCB22E" stroke="#FCB22E" stroke-width="0.6"/>
</svg>
