<svg width="23" height="23" viewBox="0 0 23 23" fill="none" xmlns="http://www.w3.org/2000/svg">
<path d="M1.91668 1H12.4584C12.9646 1 13.375 1.41041 13.375 1.91668V8.625C13.375 9.13126 12.9646 9.54168 12.4583 9.54168H1.91668C1.41043 9.54168 1 9.13126 1 8.625V1.91668C1 1.41043 1.41043 1 1.91668 1Z" fill="#FCB22E" stroke="#FCB22E" stroke-width="2"/>
<path d="M18.2087 1H21.0837C21.59 1 22.0004 1.41041 22.0004 1.91668V8.625C22.0004 9.13127 21.59 9.54168 21.0837 9.54168H18.2087C17.7024 9.54168 17.292 9.13125 17.292 8.625V1.91672C17.292 1.91671 17.292 1.9167 17.292 1.91668C17.292 1.41038 17.7025 1 18.2087 1Z" fill="#FCB22E" stroke="#FCB22E" stroke-width="2"/>
<path d="M1.91668 13.4585H4.79168C5.29794 13.4585 5.70836 13.8689 5.70836 14.3752V21.0835C5.70836 21.5898 5.29794 22.0002 4.79168 22.0002H1.91668C1.41041 22.0002 1 21.5898 1 21.0835V14.3752C1 13.8689 1.41043 13.4585 1.91668 13.4585Z" fill="#FCB22E" stroke="#FCB22E" stroke-width="2"/>
<path d="M10.5417 13.4585H21.0834C21.5896 13.4585 22 13.8689 22 14.3752V21.0835C22 21.5898 21.5896 22.0002 21.0833 22.0002H10.5417C10.0354 22.0002 9.625 21.5898 9.625 21.0835V14.3752C9.625 13.8689 10.0354 13.4585 10.5417 13.4585Z" fill="#FCB22E" stroke="#FCB22E" stroke-width="2"/>
</svg>
