<svg width="23" height="23" viewBox="0 0 23 23" fill="none" xmlns="http://www.w3.org/2000/svg">
<path d="M6.70833 21.0833H4.79167C4.02917 21.0833 3.2979 20.7804 2.75873 20.2413C2.21957 19.7021 1.91667 18.9708 1.91667 18.2083V4.79167C1.91667 4.02917 2.21957 3.2979 2.75873 2.75873C3.2979 2.21957 4.02917 1.91667 4.79167 1.91667H6.70833C6.9625 1.91667 7.20625 1.8157 7.38597 1.63598C7.5657 1.45625 7.66666 1.2125 7.66666 0.958333C7.66666 0.704167 7.5657 0.460412 7.38597 0.280689C7.20625 0.100967 6.9625 0 6.70833 0L4.79167 0C3.5213 0.0015217 2.30341 0.506845 1.40513 1.40513C0.506845 2.30341 0.0015217 3.5213 0 4.79167L0 18.2083C0.0015217 19.4787 0.506845 20.6966 1.40513 21.5949C2.30341 22.4932 3.5213 22.9985 4.79167 23H6.70833C6.9625 23 7.20625 22.899 7.38597 22.7193C7.5657 22.5396 7.66666 22.2958 7.66666 22.0417C7.66666 21.7875 7.5657 21.5437 7.38597 21.364C7.20625 21.1843 6.9625 21.0833 6.70833 21.0833Z" fill="#FCB22E"/>
<path d="M22.0414 10.5416L6.92181 10.5722C7.00587 10.4161 7.11099 10.2723 7.23423 10.1448L10.9516 6.42744C11.0431 6.33903 11.1161 6.23329 11.1664 6.11637C11.2166 5.99944 11.243 5.87369 11.2441 5.74645C11.2452 5.6192 11.221 5.49301 11.1728 5.37523C11.1246 5.25745 11.0535 5.15045 10.9635 5.06047C10.8735 4.97049 10.7665 4.89933 10.6487 4.85115C10.531 4.80296 10.4048 4.77872 10.2775 4.77982C10.1503 4.78093 10.0245 4.80736 9.90759 4.85759C9.79067 4.90781 9.68492 4.98082 9.59652 5.07235L5.87723 8.78973C5.15859 9.50858 4.75488 10.4834 4.75488 11.4999C4.75488 12.5164 5.15859 13.4912 5.87723 14.2101L9.5946 17.9274C9.68301 18.019 9.78875 18.092 9.90568 18.1422C10.0226 18.1924 10.1483 18.2189 10.2756 18.22C10.4028 18.2211 10.529 18.1968 10.6468 18.1486C10.7646 18.1005 10.8716 18.0293 10.9616 17.9393C11.0515 17.8493 11.1227 17.7423 11.1709 17.6246C11.2191 17.5068 11.2433 17.3806 11.2422 17.2533C11.2411 17.1261 11.2147 17.0003 11.1645 16.8834C11.1142 16.7665 11.0412 16.6608 10.9497 16.5724L7.23231 12.855C7.12506 12.7445 7.03143 12.6216 6.95344 12.4889L22.0414 12.4582C22.2956 12.4582 22.5394 12.3573 22.7191 12.1775C22.8988 11.9978 22.9998 11.7541 22.9998 11.4999C22.9998 11.2457 22.8988 11.002 22.7191 10.8223C22.5394 10.6425 22.2956 10.5416 22.0414 10.5416Z" fill="#FCB22E"/>
</svg>
