<svg width="25" height="25" viewBox="0 0 25 25" fill="none" xmlns="http://www.w3.org/2000/svg">
<path d="M7 10.1042V23.5208C7 23.7853 6.776 24 6.5 24C6.224 24 6 23.7853 6 23.5208V10.1042C6 9.83967 6.224 9.625 6.5 9.625C6.776 9.625 7 9.83967 7 10.1042ZM1.5 12.5C1.224 12.5 1 12.7147 1 12.9792V23.5208C1 23.7853 1.224 24 1.5 24C1.776 24 2 23.7853 2 23.5208V12.9792C2 12.7147 1.776 12.5 1.5 12.5ZM11.487 6.67046C11.211 6.67046 10.987 6.88512 10.987 7.14962L11 23.5208C11 23.7853 11.224 24 11.5 24C11.776 24 12 23.7853 12 23.5208L11.987 7.14962C11.987 6.88512 11.763 6.67046 11.487 6.67046ZM22.19 17.3933L18.085 16.2691C17.446 16.0947 17 15.5283 17 14.891C17 14.1014 17.671 13.4583 18.495 13.4583H21.505C22.329 13.4583 23 14.1014 23 14.891C23 15.1555 23.224 15.3702 23.5 15.3702C23.776 15.3702 24 15.1555 24 14.891C24 13.5724 22.881 12.5 21.505 12.5H20.5V11.0625C20.5 10.798 20.276 10.5833 20 10.5833C19.724 10.5833 19.5 10.798 19.5 11.0625V12.5H18.495C17.119 12.5 16 13.5724 16 14.891C16 15.9529 16.744 16.8987 17.81 17.1901L21.915 18.3142C22.554 18.4886 23 19.055 23 19.6923C23 20.482 22.329 21.125 21.505 21.125H18.495C17.671 21.125 17 20.482 17 19.6923C17 19.4278 16.776 19.2131 16.5 19.2131C16.224 19.2131 16 19.4278 16 19.6923C16 21.011 17.119 22.0833 18.495 22.0833H19.5V23.5208C19.5 23.7853 19.724 24 20 24C20.276 24 20.5 23.7853 20.5 23.5208V22.0833H21.505C22.881 22.0833 24 21.011 24 19.6923C24 18.6305 23.256 17.6846 22.19 17.3933ZM21.5 8.66763C21.776 8.66763 22 8.45296 22 8.18846V1.47917C22 1.21467 21.776 1 21.5 1C21.224 1 21 1.21467 21 1.47917V8.1875C21 8.452 21.224 8.66667 21.5 8.66667V8.66763ZM16.5 10.5843C16.776 10.5843 17 10.3696 17 10.1051V4.35417C17 4.08967 16.776 3.875 16.5 3.875C16.224 3.875 16 4.08967 16 4.35417V10.1042C16 10.3687 16.224 10.5833 16.5 10.5833V10.5843Z" fill="#FCB22E" stroke="#FCB22E"/>
</svg>
