<svg width="28" height="25" viewBox="0 0 28 25" fill="none" xmlns="http://www.w3.org/2000/svg">
<path d="M25.4947 5.44318H19.3368V2.4375C19.3368 1.64499 18.6614 1 17.8316 1H10.1684C9.33856 1 8.66316 1.64499 8.66316 2.4375V5.44318H2.50526C1.6754 5.44318 1 6.08817 1 6.88068V22.5625C1 23.355 1.6754 24 2.50526 24H25.4947C26.3246 24 27 23.355 27 22.5625V6.88068C27 6.08817 26.3246 5.44318 25.4947 5.44318ZM9.48421 2.4375C9.48421 2.07711 9.79104 1.78409 10.1684 1.78409H17.8316C18.209 1.78409 18.5158 2.07711 18.5158 2.4375V5.44318H17.1474V3.22159C17.1474 3.00516 16.9635 2.82955 16.7368 2.82955H11.2632C11.0365 2.82955 10.8526 3.00516 10.8526 3.22159V5.44318H9.48421V2.4375ZM16.3263 5.44318H11.6737V3.61364H16.3263V5.44318ZM1.82105 6.88068C1.82105 6.52029 2.12788 6.22727 2.50526 6.22727H25.4947C25.8721 6.22727 26.1789 6.52029 26.1789 6.88068V12.108C26.1789 13.3328 25.1353 14.3295 23.8526 14.3295H19.0424C18.8322 11.8465 16.6533 9.88636 14 9.88636C11.3467 9.88636 9.1678 11.8465 8.95764 14.3295H4.14737C2.86475 14.3295 1.82105 13.3328 1.82105 12.108V6.88068ZM18.2421 14.7216C18.2421 16.9554 16.3392 18.7727 14 18.7727C11.6608 18.7727 9.75789 16.9554 9.75789 14.7216C9.75789 12.4877 11.6608 10.6705 14 10.6705C16.3392 10.6705 18.2421 12.4877 18.2421 14.7216ZM26.1789 22.5625C26.1789 22.9229 25.8721 23.2159 25.4947 23.2159H2.50526C2.12788 23.2159 1.82105 22.9229 1.82105 22.5625V14.1253C2.39724 14.7306 3.22533 15.1136 4.14737 15.1136H8.95764C9.1678 17.5967 11.3467 19.5568 14 19.5568C16.6533 19.5568 18.8322 17.5967 19.0424 15.1136H23.8526C24.7747 15.1136 25.6028 14.7306 26.1789 14.1253V22.5625ZM13.2834 13.6481V13.825C13.2834 14.0159 13.4189 14.1815 13.613 14.228L14.5861 14.4603C15.1463 14.594 15.5376 15.0726 15.5376 15.6239V15.8008C15.5376 16.42 15.0419 16.9251 14.4105 16.9877V17.4152C14.4105 17.6316 14.2266 17.8072 14 17.8072C13.7734 17.8072 13.5895 17.6316 13.5895 17.4152V16.9877C12.9581 16.9251 12.4624 16.42 12.4624 15.8008C12.4624 15.5843 12.6463 15.4087 12.8729 15.4087C13.0996 15.4087 13.2834 15.5843 13.2834 15.8008C13.2834 16.0297 13.4785 16.216 13.7183 16.216H14.2817C14.5215 16.216 14.7166 16.0297 14.7166 15.8008V15.6239C14.7166 15.4329 14.5811 15.2673 14.387 15.2208L13.4139 14.9886C12.8537 14.8548 12.4624 14.3763 12.4624 13.825V13.6481C12.4624 13.0289 12.9581 12.5238 13.5895 12.4611V12.0737C13.5895 11.8573 13.7734 11.6817 14 11.6817C14.2266 11.6817 14.4105 11.8573 14.4105 12.0737V12.4611C15.0419 12.5238 15.5376 13.0289 15.5376 13.6481C15.5376 13.8645 15.3537 14.0401 15.1271 14.0401C14.9004 14.0401 14.7166 13.8645 14.7166 13.6481C14.7166 13.4191 14.5215 13.2328 14.2817 13.2328H13.7183C13.4785 13.2328 13.2834 13.4191 13.2834 13.6481Z" fill="#FCB22E" stroke="#FCB22E" stroke-width="0.7"/>
</svg>
