<svg width="22" height="23" viewBox="0 0 22 23" fill="none" xmlns="http://www.w3.org/2000/svg">
<path d="M20.6267 19.5865C20.4558 16.5899 18.0556 14.6515 15.0147 13.7785C13.7501 13.4158 12.376 13.2342 10.9988 13.2342C9.62165 13.2342 8.2468 13.4158 6.98302 13.7785C3.94125 14.6522 1.54108 16.5899 1.36864 19.5851C4.1533 21.0377 7.57257 21.7643 10.9988 21.7643C14.4243 21.7643 17.8428 21.0384 20.6267 19.5865ZM10.9988 0C12.745 0 14.3257 0.641431 15.4706 1.67927C16.6148 2.7164 17.3232 4.14994 17.3232 5.73275C17.3232 7.31556 16.6155 8.74839 15.4706 9.78623C14.3257 10.8234 12.745 11.4655 10.9988 11.4655C9.25269 11.4655 7.67122 10.8241 6.52706 9.78623C5.38213 8.74839 4.67451 7.31556 4.67451 5.73275C4.67451 4.14994 5.38213 2.7164 6.52706 1.67927C7.67122 0.641431 9.25269 0 10.9988 0ZM14.5067 2.55305C13.6087 1.73912 12.369 1.23639 10.9988 1.23639C9.62864 1.23639 8.38817 1.73982 7.49101 2.55305C6.59309 3.36699 6.03849 4.49072 6.03849 5.73275C6.03849 6.97407 6.59386 8.09851 7.49101 8.91245C8.38894 9.72638 9.62864 10.2291 10.9988 10.2291C12.3683 10.2291 13.6087 9.72568 14.5067 8.91245C15.4046 8.09851 15.9592 6.97477 15.9592 5.73275C15.9592 4.49072 15.4038 3.36628 14.5067 2.55305ZM15.4248 12.6005C19.1159 13.6609 22 16.102 22 19.9315H21.9984C21.9984 20.1393 21.8827 20.3413 21.6722 20.4575C18.6087 22.1523 14.7995 23 10.9988 23C7.19818 23 3.38898 22.1523 0.324683 20.4575L0.32546 20.4568C0.130495 20.3484 0 20.154 0 19.9315C0 16.1013 2.88253 13.6602 6.57211 12.6005C7.97105 12.1992 9.48572 11.9978 10.9981 11.9978C12.5104 11.9978 14.0251 12.1985 15.424 12.6005H15.4248Z" fill="#FCB22E"/>
</svg>
