<svg width="23" height="24" viewBox="0 0 23 24" fill="none" xmlns="http://www.w3.org/2000/svg">
<g filter="url(#filter0_d_590_4360)">
<mask id="path-1-inside-1_590_4360" fill="white">
<path d="M18.9656 0.0220417L11.9787 1.83138V0H11.0204V2.08054L3.96254 3.90808L0.0373734 13.2307L0 13.8958C0 16.2735 1.93479 18.2083 4.31232 18.2083C6.68985 18.2083 8.62464 16.2735 8.62464 13.8958V13.4167L4.96684 4.63738L11.0204 3.06954V22.0417H3.83317V23H19.1659V22.0417H11.9787V2.82229L17.8147 1.311L14.4127 9.39837L14.3754 10.0635C14.3754 12.4411 16.3102 14.376 18.6877 14.376C21.0652 14.376 23 12.4411 23 10.0635V9.58429L18.9656 0.0220417ZM4.31232 17.25C2.62572 17.25 1.22566 15.9984 0.992792 14.375H7.63185C7.39898 15.9984 5.99892 17.25 4.31232 17.25ZM0.998542 13.4167L4.31232 5.54683L7.6261 13.4167H0.998542ZM18.6647 1.7595L21.9986 9.58333H15.3729L18.6647 1.7595ZM18.6867 13.4167C17.0001 13.4167 15.6001 12.1651 15.3672 10.5417H22.0072C21.7743 12.1651 20.3733 13.4167 18.6867 13.4167Z"/>
</mask>
<path d="M18.9656 0.0220417L25.4151 -2.69906L23.0645 -8.27031L17.2108 -6.75443L18.9656 0.0220417ZM11.9787 1.83138H4.97867V10.875L13.7335 8.60785L11.9787 1.83138ZM11.9787 0H18.9787V-7H11.9787V0ZM11.0204 0V-7H4.02037V0H11.0204ZM11.0204 2.08054L12.7751 8.85705L18.0204 7.49884V2.08054H11.0204ZM3.96254 3.90808L2.20785 -2.86842L-1.14499 -2.00025L-2.48894 1.19178L3.96254 3.90808ZM0.0373734 13.2307L-6.41411 10.5144L-6.88371 11.6298L-6.9516 12.838L0.0373734 13.2307ZM0 13.8958L-6.98897 13.5031L-7 13.6993V13.8958H0ZM8.62464 13.4167H15.6246V12.0167L15.0862 10.7245L8.62464 13.4167ZM4.96684 4.63738L3.21178 -2.13904L-4.59712 -0.116578L-1.49476 7.32954L4.96684 4.63738ZM11.0204 3.06954H18.0204V-5.97438L9.26532 -3.70687L11.0204 3.06954ZM11.0204 22.0417V29.0417H18.0204V22.0417H11.0204ZM3.83317 22.0417V15.0417H-3.16683V22.0417H3.83317ZM3.83317 23H-3.16683V30H3.83317V23ZM19.1659 23V30H26.1659V23H19.1659ZM19.1659 22.0417H26.1659V15.0417H19.1659V22.0417ZM11.9787 22.0417H4.97867V29.0417H11.9787V22.0417ZM11.9787 2.82229L10.2238 -3.95418L4.97867 -2.59589V2.82229H11.9787ZM17.8147 1.311L24.2671 4.02518L29.7506 -9.01084L16.0598 -5.46547L17.8147 1.311ZM14.4127 9.39837L7.96035 6.68419L7.49159 7.79858L7.42376 9.00564L14.4127 9.39837ZM14.3754 10.0635L7.38639 9.67073L7.37536 9.86694V10.0635H14.3754ZM23 9.58429H30V8.16805L29.4495 6.86319L23 9.58429ZM0.992792 14.375V7.375H-7.08295L-5.93629 15.3689L0.992792 14.375ZM7.63185 14.375L14.5609 15.3689L15.7076 7.375H7.63185V14.375ZM0.998542 13.4167L-5.45286 10.7002L-9.54422 20.4167H0.998542V13.4167ZM4.31232 5.54683L10.7637 2.83032L4.31232 -12.491L-2.13908 2.83032L4.31232 5.54683ZM7.6261 13.4167V20.4167H18.1689L14.0775 10.7002L7.6261 13.4167ZM18.6647 1.7595L25.1044 -0.9846L18.6237 -16.1933L12.2125 -0.955142L18.6647 1.7595ZM21.9986 9.58333V16.5833H32.5905L28.4383 6.83923L21.9986 9.58333ZM15.3729 9.58333L8.92076 6.86869L4.83349 16.5833H15.3729V9.58333ZM15.3672 10.5417V3.54167H7.29145L8.43811 11.5356L15.3672 10.5417ZM22.0072 10.5417L28.9363 11.5356L30.0829 3.54167H22.0072V10.5417ZM17.2108 -6.75443L10.2238 -4.9451L13.7335 8.60785L20.7204 6.79851L17.2108 -6.75443ZM18.9787 1.83138V0H4.97867V1.83138H18.9787ZM11.9787 -7H11.0204V7H11.9787V-7ZM4.02037 0V2.08054H18.0204V0H4.02037ZM9.26568 -4.69596L2.20785 -2.86842L5.71724 10.6846L12.7751 8.85705L9.26568 -4.69596ZM-2.48894 1.19178L-6.41411 10.5144L6.48886 15.9471L10.414 6.62439L-2.48894 1.19178ZM-6.9516 12.838L-6.98897 13.5031L6.98897 14.2886L7.02635 13.6235L-6.9516 12.838ZM-7 13.8958C-7 20.1392 -1.93147 25.2083 4.31232 25.2083V11.2083C5.80106 11.2083 7 12.4077 7 13.8958H-7ZM4.31232 25.2083C10.5561 25.2083 15.6246 20.1392 15.6246 13.8958H1.62464C1.62464 12.4077 2.82358 11.2083 4.31232 11.2083V25.2083ZM15.6246 13.8958V13.4167H1.62464V13.8958H15.6246ZM15.0862 10.7245L11.4284 1.94521L-1.49476 7.32954L2.16304 16.1088L15.0862 10.7245ZM6.72189 11.4138L12.7754 9.84596L9.26532 -3.70687L3.21178 -2.13904L6.72189 11.4138ZM4.02037 3.06954V22.0417H18.0204V3.06954H4.02037ZM11.0204 15.0417H3.83317V29.0417H11.0204V15.0417ZM-3.16683 22.0417V23H10.8332V22.0417H-3.16683ZM3.83317 30H19.1659V16H3.83317V30ZM26.1659 23V22.0417H12.1659V23H26.1659ZM19.1659 15.0417H11.9787V29.0417H19.1659V15.0417ZM18.9787 22.0417V2.82229H4.97867V22.0417H18.9787ZM13.7335 9.59876L19.5695 8.08747L16.0598 -5.46547L10.2238 -3.95418L13.7335 9.59876ZM11.3623 -1.40318L7.96035 6.68419L20.8651 12.1126L24.2671 4.02518L11.3623 -1.40318ZM7.42376 9.00564L7.38639 9.67073L21.3643 10.4562L21.4017 9.79111L7.42376 9.00564ZM7.37536 10.0635C7.37536 16.3068 12.4439 21.376 18.6877 21.376V7.37596C20.1764 7.37596 21.3754 8.57537 21.3754 10.0635H7.37536ZM18.6877 21.376C24.9315 21.376 30 16.3068 30 10.0635H16C16 8.57537 17.1989 7.37596 18.6877 7.37596V21.376ZM30 10.0635V9.58429H16V10.0635H30ZM29.4495 6.86319L25.4151 -2.69906L12.5161 2.74314L16.5505 12.3054L29.4495 6.86319ZM4.31232 10.25C6.16072 10.25 7.66789 11.6104 7.92187 13.3811L-5.93629 15.3689C-5.21657 20.3864 -0.909274 24.25 4.31232 24.25V10.25ZM0.992792 21.375H7.63185V7.375H0.992792V21.375ZM0.702771 13.3811C0.956755 11.6104 2.46392 10.25 4.31232 10.25V24.25C9.53391 24.25 13.8412 20.3864 14.5609 15.3689L0.702771 13.3811ZM7.44994 16.1332L10.7637 8.26335L-2.13908 2.83032L-5.45286 10.7002L7.44994 16.1332ZM-2.13908 8.26335L1.1747 16.1332L14.0775 10.7002L10.7637 2.83032L-2.13908 8.26335ZM7.6261 6.41667H0.998542V20.4167H7.6261V6.41667ZM12.225 4.5036L15.5589 12.3274L28.4383 6.83923L25.1044 -0.9846L12.225 4.5036ZM21.9986 2.58333H15.3729V16.5833H21.9986V2.58333ZM21.8251 12.298L25.1169 4.47414L12.2125 -0.955142L8.92076 6.86869L21.8251 12.298ZM18.6867 6.41667C20.5351 6.41667 22.0423 7.7771 22.2963 9.54775L8.43811 11.5356C9.15783 16.5531 13.4651 20.4167 18.6867 20.4167V6.41667ZM15.3672 17.5417H22.0072V3.54167H15.3672V17.5417ZM15.0781 9.54775C15.3325 7.77463 16.8408 6.41667 18.6867 6.41667V20.4167C23.9058 20.4167 28.2162 16.5555 28.9363 11.5356L15.0781 9.54775Z" fill="#FCB22E" mask="url(#path-1-inside-1_590_4360)"/>
</g>
<defs>
<filter id="filter0_d_590_4360" x="0" y="0" width="23" height="23.5" filterUnits="userSpaceOnUse" color-interpolation-filters="sRGB">
<feFlood flood-opacity="0" result="BackgroundImageFix"/>
<feColorMatrix in="SourceAlpha" type="matrix" values="0 0 0 0 0 0 0 0 0 0 0 0 0 0 0 0 0 0 127 0" result="hardAlpha"/>
<feOffset dy="0.5"/>
<feComposite in2="hardAlpha" operator="out"/>
<feColorMatrix type="matrix" values="0 0 0 0 0.988235 0 0 0 0 0.698039 0 0 0 0 0.180392 0 0 0 1 0"/>
<feBlend mode="normal" in2="BackgroundImageFix" result="effect1_dropShadow_590_4360"/>
<feBlend mode="normal" in="SourceGraphic" in2="effect1_dropShadow_590_4360" result="shape"/>
</filter>
</defs>
</svg>
