<svg width="23" height="23" viewBox="0 0 23 23" fill="none" xmlns="http://www.w3.org/2000/svg">
<mask id="path-1-inside-1_590_4334" fill="white">
<path d="M11.5 0C5.15967 0 0 5.15967 0 11.5C0 17.8403 5.15967 23 11.5 23C17.8403 23 23 17.8403 23 11.5C23 5.15967 17.8403 0 11.5 0ZM11.5 22.2333C5.58133 22.2333 0.766667 17.4187 0.766667 11.5C0.766667 5.58133 5.58133 0.766667 11.5 0.766667C17.4187 0.766667 22.2333 5.58133 22.2333 11.5C22.2333 17.4187 17.4187 22.2333 11.5 22.2333Z"/>
</mask>
<path d="M11.5 0C5.15967 0 0 5.15967 0 11.5C0 17.8403 5.15967 23 11.5 23C17.8403 23 23 17.8403 23 11.5C23 5.15967 17.8403 0 11.5 0ZM11.5 22.2333C5.58133 22.2333 0.766667 17.4187 0.766667 11.5C0.766667 5.58133 5.58133 0.766667 11.5 0.766667C17.4187 0.766667 22.2333 5.58133 22.2333 11.5C22.2333 17.4187 17.4187 22.2333 11.5 22.2333Z" fill="#FCB22E"/>
<path d="M11.5 -1C4.60738 -1 -1 4.60738 -1 11.5H1C1 5.71195 5.71195 1 11.5 1V-1ZM-1 11.5C-1 18.3926 4.60738 24 11.5 24V22C5.71195 22 1 17.288 1 11.5H-1ZM11.5 24C18.3926 24 24 18.3926 24 11.5H22C22 17.288 17.288 22 11.5 22V24ZM24 11.5C24 4.60738 18.3926 -1 11.5 -1V1C17.288 1 22 5.71195 22 11.5H24ZM11.5 21.2333C6.13362 21.2333 1.76667 16.8664 1.76667 11.5H-0.233333C-0.233333 17.971 5.02905 23.2333 11.5 23.2333V21.2333ZM1.76667 11.5C1.76667 6.13362 6.13362 1.76667 11.5 1.76667V-0.233333C5.02905 -0.233333 -0.233333 5.02905 -0.233333 11.5H1.76667ZM11.5 1.76667C16.8664 1.76667 21.2333 6.13362 21.2333 11.5H23.2333C23.2333 5.02905 17.971 -0.233333 11.5 -0.233333V1.76667ZM21.2333 11.5C21.2333 16.8664 16.8664 21.2333 11.5 21.2333V23.2333C17.971 23.2333 23.2333 17.971 23.2333 11.5H21.2333Z" fill="#FCB22E" mask="url(#path-1-inside-1_590_4334)"/>
<path d="M11.5 20.7V21.4667C16.997 21.4667 21.4667 16.997 21.4667 11.5H20.7C20.7 16.5715 16.5715 20.7 11.5 20.7Z" fill="#FCB22E"/>
<path d="M11.4999 1.5332C6.00287 1.5332 1.5332 6.00287 1.5332 11.4999H2.29987C2.29987 6.42837 6.42837 2.29987 11.4999 2.29987V1.5332Z" fill="#FCB22E"/>
<path d="M11.5 5.74994C11.5 5.74994 11.5191 5.74994 11.5306 5.74994C12.742 5.76527 13.7808 6.80411 13.7961 8.01544C13.8038 8.63644 13.57 9.22294 13.133 9.66377C12.696 10.1046 12.1171 10.3499 11.4961 10.3499C10.649 10.3499 9.96281 11.0361 9.96281 11.8833V14.9499C9.96281 15.5824 10.4803 16.0999 11.1128 16.0999C11.7453 16.0999 12.2628 15.5824 12.2628 14.9499V12.5848C13.3706 12.3969 14.3865 11.8028 15.0918 10.9173C15.8815 9.93211 16.2226 8.69011 16.054 7.42127C15.7818 5.37044 14.0913 3.71444 12.0328 3.48061C9.65997 3.20844 7.49414 4.76094 6.99581 7.08394C6.92681 7.40977 7.00731 7.74327 7.21814 8.00777C7.43664 8.27994 7.76247 8.43327 8.12664 8.43327C8.67097 8.43327 9.13097 8.06911 9.24597 7.54777C9.47981 6.50127 10.4228 5.74994 11.4923 5.74994H11.5Z" fill="#FCB22E"/>
<path d="M11.1163 19.5501C11.9632 19.5501 12.6497 18.8636 12.6497 18.0167C12.6497 17.1699 11.9632 16.4834 11.1163 16.4834C10.2695 16.4834 9.58301 17.1699 9.58301 18.0167C9.58301 18.8636 10.2695 19.5501 11.1163 19.5501Z" fill="#FCB22E"/>
</svg>
