<svg width="126" height="125" viewBox="0 0 126 125" fill="none" xmlns="http://www.w3.org/2000/svg">
<path d="M51.3082 24.0396C52.2467 22.897 53.1853 21.5653 54.1238 20.232C56.7513 16.2368 60.3174 14.1407 64.0684 13.0012C65.1949 12.6198 66.884 13.1903 67.8225 13.7624C69.5115 14.5236 71.0125 15.0941 73.2656 14.5236C75.5171 14.1422 77.0181 14.5236 77.5822 15.8554C77.5822 16.6166 77.2062 17.9499 77.3942 18.3297C77.5822 19.663 77.5822 20.8056 76.4556 22.5187C76.0796 22.7079 76.2676 23.0893 76.2676 23.4707C76.0796 27.8457 77.2062 24.0412 75.3291 28.4193C74.3906 30.5123 74.2026 32.4146 73.4521 34.1277C64.446 57.1597 73.8281 45.7398 81.3347 35.6517C82.0852 33.5572 83.3998 31.8441 85.0888 30.1309C87.7163 26.3233 90.9064 22.897 93.5339 18.9018C97.8505 13.1903 102.916 8.05088 108.546 4.05564C110.611 2.72234 112.488 0.629378 114.365 1.00921C116.242 1.19991 118.117 1.96115 119.432 3.10375C120.745 4.24636 121.871 5.5781 122.622 7.09899C122.998 7.28968 123.184 7.48038 123.372 7.48038C126 8.05091 126 10.7159 126 13.1903C125.812 13.7624 125.438 14.3329 125.438 14.7143C122.998 20.232 120.557 25.3714 119.806 30.5108C119.432 33.1758 119.056 36.0316 118.868 38.5044C118.493 40.9787 118.305 43.8345 117.743 46.6902C117.367 49.1645 117.367 51.6389 115.303 54.1117C115.303 54.3024 115.115 54.4931 115.303 54.8729C116.616 56.0155 114.739 57.3488 114.177 58.6805C113.989 59.2511 113.614 60.0139 113.989 60.5844C114.551 62.6774 114.365 64.5812 112.676 67.0556C112.676 67.2463 112.488 67.6277 112.488 68.1982C111.925 69.9113 111.549 71.4338 111.173 72.9578C111.361 72.9578 111.361 72.767 112.112 72.3857C111.549 75.0507 108.361 77.3359 109.299 79.8103C110.612 79.8103 110.424 81.142 110.05 82.8551C109.111 86.6628 108.735 90.2798 107.046 94.2766C107.234 94.4672 107.046 94.6579 107.234 94.847C108.173 96.7509 105.921 99.416 106.484 101.89C106.672 103.414 105.545 105.317 106.484 107.22C106.484 108.172 105.733 109.695 104.419 111.028C104.044 111.789 103.106 112.36 102.355 113.121C101.229 115.786 101.041 115.977 98.601 116.167C98.0385 116.167 97.4745 116.358 96.3495 116.549C95.035 116.738 94.0964 116.738 93.5339 115.786C93.3459 115.406 92.7834 115.216 92.0329 115.025C89.5934 114.454 88.8413 112.172 89.9679 109.695C91.8449 102.844 92.5954 96.7525 93.5339 90.2829C94.0964 88.7589 94.4725 86.8566 94.847 85.3326C95.599 83.049 96.1615 80.3839 97.288 77.7189C97.288 78.4801 96.912 79.432 96.912 80.3839C97.4745 80.0041 97.4745 80.0041 97.6625 80.0041C98.0385 78.6708 98.601 77.339 98.789 75.815C99.3515 72.3887 101.039 68.7718 100.666 65.5378C100.478 65.3471 100.478 64.9672 100.666 64.7765C102.542 62.8727 100.853 60.9689 102.355 59.0681C102.918 58.4945 102.73 57.7349 102.918 57.355C102.542 55.2605 103.294 53.166 104.607 51.073C104.607 50.6916 104.607 50.3118 104.607 50.1211C104.607 50.1211 104.607 50.1211 104.419 49.9304C103.106 52.7862 101.979 55.6419 100.853 58.4945C100.666 58.4945 100.478 58.4945 100.29 58.4945C103.106 41.7461 103.856 39.6516 91.0959 57.7333C90.9079 57.5426 90.7199 57.3535 90.7199 57.1628C90.3454 57.1628 90.1574 57.3535 90.1574 57.3535C90.1574 57.924 89.7814 58.4945 89.5949 59.0666C88.6564 61.541 87.7179 62.4928 85.2783 64.0137C84.7143 64.2044 84.3398 64.775 84.3398 65.1563C83.4013 65.9176 83.0253 66.6788 82.6508 67.44C80.5857 73.3407 68.3865 90.8518 64.822 96.7509C63.3209 99.416 61.0694 100.938 58.4419 103.414C58.4419 102.272 58.2539 101.51 58.8164 100.749C58.6299 100.749 58.4419 100.749 58.4419 100.749C57.6914 102.081 56.7529 103.224 55.8143 104.555C55.8143 104.366 55.6263 104.366 55.4383 104.176C54.3133 106.841 52.4363 107.602 50.3712 108.172C46.6202 109.506 43.6166 109.695 40.6146 108.744C38.7376 108.172 36.298 107.982 34.7955 106.65C33.4824 105.698 33.2944 105.889 34.609 103.603C36.483 100.559 38.172 97.5121 40.237 94.847C42.3021 91.8022 43.6151 89.3294 43.2406 86.6644C47.3692 65.5363 59.0028 38.6982 43.6151 63.0619C41.7381 66.1083 39.8641 69.5345 37.2365 72.3872C31.2309 85.5202 16.4057 104.937 14.1526 119.022C13.9661 120.161 13.5901 121.687 12.8396 123.209C11.7131 124.922 10.7746 125.113 9.83757 124.352C9.27354 124.161 9.08552 124.161 8.89904 123.97C7.96052 121.687 6.08348 121.305 3.64395 120.926C2.13987 120.735 1.20441 119.783 0.0778758 119.211C-0.110134 119.022 0.0778775 118.07 0.265887 117.688C3.83196 111.219 5.33297 105.127 6.83399 98.8455C7.39649 96.5618 7.3965 94.0859 8.33501 91.6115C8.89904 88.7558 13.5901 77.5266 14.3406 74.6724C15.0911 71.6259 15.8432 68.5811 16.5937 65.5347C18.0947 59.634 19.4062 53.735 21.0952 47.8344C21.2832 46.6918 21.8473 45.3585 21.8473 44.0267C22.0322 39.6485 23.5363 35.2719 25.2253 30.703C25.7878 29.3713 25.9758 27.8473 26.7263 26.3249C27.1008 24.9931 27.6648 23.4722 28.2273 22.1373C28.7898 20.8056 29.5419 20.2335 30.4789 20.6149C31.4174 21.5668 32.7319 22.328 33.6705 23.2799C34.233 24.0412 34.0449 25.1838 34.233 26.3249C33.6705 30.1325 32.7319 33.9371 31.6054 37.7447C27.2888 58.8728 43.4271 34.6998 45.6801 31.2751C47.3676 28.7976 49.6192 26.514 51.3082 24.0396ZM40.9875 99.9849C41.1755 99.6036 41.3636 99.2222 41.9261 98.2718C41.9261 98.0811 41.9261 97.8904 41.9261 97.3199C41.5516 98.0811 40.9875 98.461 40.7995 98.6517C40.7995 99.2222 40.7995 99.6036 40.6131 99.9849C40.7995 99.9849 40.7995 99.9849 40.9875 99.9849ZM66.6959 62.8681C67.6345 61.5364 68.573 59.8232 69.5115 58.11C70.638 55.445 72.1391 52.78 74.9546 50.4948C75.5171 49.7335 76.0796 48.5925 76.0796 47.6406C73.2656 50.1149 67.2615 59.4403 65.3845 64.1999C65.9454 63.82 66.323 63.4402 66.6959 62.8681ZM85.0873 37.1742C85.0873 36.6021 85.4618 36.0316 85.8378 35.6517C88.6533 32.796 89.5919 29.3697 91.8434 26.1326C89.5919 28.0364 83.3998 36.9835 82.2717 39.6485C83.7727 39.078 84.7113 38.1261 85.0873 37.1742Z" fill="black"/>
</svg>
