<svg width="471" height="250" viewBox="0 0 471 250" fill="none" xmlns="http://www.w3.org/2000/svg">
<path d="M206.248 198.674H212.37C213.916 198.674 215.132 199.056 216.016 199.817C216.905 200.579 217.349 201.543 217.349 202.716C217.349 204.427 216.366 205.578 214.404 206.161C215.4 206.308 216.196 206.744 216.797 207.469C217.394 208.192 217.693 209.032 217.693 209.982C217.693 211.183 217.245 212.151 216.351 212.892C215.457 213.632 214.245 214.001 212.718 214.001H206.248V198.674ZM209.299 201.047V205.019H212.045C212.724 205.019 213.26 204.847 213.657 204.503C214.056 204.16 214.255 203.673 214.255 203.044C214.255 202.414 214.056 201.923 213.657 201.57C213.26 201.221 212.724 201.047 212.045 201.047H209.299ZM209.299 211.63H212.37C213.049 211.63 213.593 211.443 214.005 211.069C214.415 210.695 214.623 210.179 214.623 209.522C214.623 208.862 214.413 208.344 213.994 207.962C213.578 207.584 213.028 207.39 212.351 207.39H209.301V211.63H209.299Z" fill="black"/>
<path d="M244.069 214.001L243.096 211.125H237.212L236.238 214.001H233.016L238.359 198.632H241.973L247.296 214.001H244.069ZM238.015 208.752H242.319L240.157 202.363L238.015 208.752Z" fill="black"/>
<path d="M266.312 207.895V213.999H263.262V198.672H268.823C270.567 198.672 271.911 199.115 272.856 200.001C273.801 200.887 274.276 201.981 274.276 203.283C274.276 204.248 273.986 205.15 273.408 205.982C272.83 206.815 271.922 207.388 270.682 207.697L274.535 213.997H270.921L267.307 207.893L266.312 207.895ZM266.312 201.047V205.524H268.823C269.586 205.524 270.17 205.322 270.575 204.919C270.977 204.517 271.178 203.972 271.178 203.283C271.178 202.595 270.977 202.05 270.575 201.647C270.17 201.244 269.586 201.043 268.823 201.043H266.312V201.047Z" fill="black"/>
<path d="M294.958 214.154C293.644 214.154 292.533 213.695 291.618 212.78C290.702 211.865 290.244 210.766 290.244 209.477C290.244 208.188 290.603 207.114 291.323 206.251C292.045 205.386 292.922 204.881 293.964 204.735C293.113 203.475 292.688 202.374 292.688 201.43C292.688 200.486 293.062 199.637 293.811 198.885C294.561 198.129 295.591 197.753 296.905 197.753C298.219 197.753 299.258 198.102 300.022 198.806C300.785 199.508 301.167 200.337 301.167 201.286C301.167 201.77 301.08 202.188 300.908 202.541H297.986C298.115 202.305 298.181 202.009 298.181 201.651C298.181 201.292 298.06 200.989 297.822 200.738C297.585 200.49 297.279 200.364 296.903 200.364C296.531 200.364 296.226 200.488 295.996 200.738C295.765 200.989 295.648 201.311 295.648 201.714C295.648 202.117 295.865 202.612 296.296 203.197L304.282 213.998H300.733L299.065 211.672C298.691 212.402 298.132 213.001 297.391 213.461C296.65 213.924 295.841 214.154 294.958 214.154ZM293.467 210.958C293.883 211.405 294.389 211.629 294.981 211.629C295.572 211.629 296.081 211.405 296.506 210.958C296.931 210.511 297.143 209.972 297.143 209.347C297.143 208.718 296.93 208.186 296.506 207.753C296.081 207.321 295.572 207.106 294.981 207.106C294.389 207.106 293.883 207.321 293.467 207.753C293.047 208.186 292.837 208.718 292.837 209.347C292.839 209.974 293.049 210.513 293.467 210.958Z" fill="black"/>
<path d="M126.523 243.718V249.822H123.473V234.495H129.033C130.778 234.495 132.122 234.938 133.067 235.824C134.012 236.711 134.487 237.804 134.487 239.107C134.487 240.071 134.195 240.973 133.619 241.805C133.042 242.64 132.133 243.212 130.893 243.52L134.745 249.82H131.132L127.518 243.716L126.523 243.718ZM126.523 236.87V241.347H129.033C129.797 241.347 130.381 241.146 130.786 240.743C131.188 240.34 131.389 239.795 131.389 239.107C131.389 238.418 131.188 237.873 130.786 237.47C130.381 237.067 129.797 236.866 129.033 236.866H126.523V236.87Z" fill="black"/>
<path d="M160.084 234.455V236.824H154.416V240.845H159.434V243.216H154.416V247.455H160.084V249.824H151.365V234.455H160.084Z" fill="black"/>
<path d="M181.928 236.761C181.321 236.761 180.828 236.918 180.446 237.232C180.064 237.547 179.875 237.982 179.875 238.539C179.875 239.095 180.013 239.531 180.295 239.845C180.576 240.16 180.951 240.401 181.41 240.57C181.873 240.737 182.378 240.889 182.926 241.019C183.472 241.15 184.02 241.313 184.568 241.502C185.117 241.692 185.619 241.924 186.082 242.205C186.545 242.481 186.916 242.889 187.198 243.423C187.479 243.956 187.619 244.604 187.619 245.364C187.619 246.624 187.126 247.708 186.137 248.615C185.149 249.523 183.837 249.977 182.198 249.977C180.561 249.977 179.238 249.586 178.229 248.801C177.22 248.017 176.715 246.918 176.715 245.498H179.96C180.076 246.845 180.83 247.516 182.23 247.516C182.926 247.516 183.472 247.336 183.877 246.968C184.279 246.603 184.483 246.116 184.483 245.508C184.483 244.902 184.217 244.42 183.682 244.071C183.147 243.718 182.504 243.455 181.746 243.281C180.988 243.106 180.229 242.893 179.463 242.642C178.699 242.394 178.049 241.959 177.518 241.336C176.983 240.714 176.717 239.889 176.717 238.867C176.717 237.476 177.214 236.362 178.21 235.529C179.204 234.695 180.486 234.278 182.047 234.278C183.612 234.278 184.871 234.641 185.825 235.366C186.776 236.089 187.296 237.19 187.383 238.669H184.05C183.992 238.084 183.778 237.62 183.4 237.277C183.024 236.931 182.533 236.761 181.928 236.761Z" fill="black"/>
<path d="M203.506 236.87V234.497H214.692V236.87H210.601V249.824H207.573V236.87H203.506Z" fill="black"/>
<path d="M240.778 249.824L239.805 246.95H233.921L232.947 249.824H229.725L235.068 234.455H238.682L244.005 249.824H240.778ZM234.722 244.576H239.026L236.864 238.186L234.722 244.576Z" fill="black"/>
<path d="M259.924 243.941V234.497H262.975V243.941C262.975 244.994 263.235 245.792 263.765 246.335C264.29 246.877 265.042 247.144 266.025 247.144C267.004 247.144 267.762 246.875 268.297 246.335C268.828 245.792 269.095 244.994 269.095 243.941V234.497H272.125V243.941C272.125 245.874 271.524 247.363 270.329 248.406C269.131 249.456 267.675 249.977 265.957 249.977C264.243 249.977 262.806 249.457 261.651 248.418C260.502 247.38 259.924 245.888 259.924 243.941Z" fill="black"/>
<path d="M292.211 243.718V249.822H289.16V234.495H294.721C296.466 234.495 297.809 234.938 298.755 235.824C299.7 236.711 300.174 237.804 300.174 239.107C300.174 240.071 299.883 240.973 299.306 241.805C298.728 242.64 297.821 243.212 296.581 243.52L300.433 249.82H296.819L293.205 243.716L292.211 243.718ZM292.211 236.87V241.347H294.721C295.485 241.347 296.069 241.146 296.473 240.743C296.876 240.34 297.076 239.795 297.076 239.107C297.076 238.418 296.874 237.873 296.473 237.47C296.069 237.067 295.485 236.866 294.721 236.866H292.211V236.87Z" fill="black"/>
<path d="M326.954 249.824L325.981 246.95H320.098L319.125 249.824H315.902L321.246 234.455H324.86L330.182 249.824H326.954ZM320.898 244.576H325.202L323.04 238.186L320.898 244.576Z" fill="black"/>
<path d="M356.034 234.455H359.085V249.824H356.034L349.197 239.197V249.824H346.146V234.455H349.197L356.034 245.082V234.455Z" fill="black"/>
<path d="M375.289 236.87V234.497H386.475V236.87H382.385V249.824H379.357V236.87H375.289Z" fill="black"/>
<path d="M469.098 95.7967C468.844 95.0045 468.61 94.218 468.332 93.445L467.309 91.1641C466.669 88.9006 465.542 86.4433 464.478 83.871C463.147 81.4406 461.82 78.8645 460.214 76.7947C457.125 72.5036 453.63 69.5303 452.207 68.8225C448.565 66.5801 444.803 64.9879 441.099 63.649C437.383 62.4674 433.705 61.4603 430.108 60.8522C422.897 59.4883 416.001 59.0816 409.388 58.838C402.723 58.6347 396.578 58.7441 390.596 58.7843C384.606 58.8572 378.82 59.0126 373.28 59.3675C351.279 60.2614 329.493 60.3688 308.411 60.881C297.193 61.1361 286.202 61.5677 275.466 62.2391L273.632 60.9558C270.147 61.6521 266.726 62.1393 265.968 62.9239C264.24 63.0601 262.505 63.1905 260.792 63.344C255.526 62.7723 251.136 63.0179 247.786 64.6599C243.836 64.0269 246.395 63.5512 244.136 62.9757C238.158 63.415 231.669 63.5319 225.033 63.4188C223.05 62.9066 220.137 62.5153 214.096 62.4942L213.939 63.0179C193.783 61.9187 173.902 58.9301 163.58 55.7324C152.676 59.7952 138.982 56.5841 126.386 58.3949C118.945 59.0644 110.806 60.2173 103.067 61.1917C99.1756 61.7001 95.5447 62.0146 91.5678 62.4789C87.693 62.9949 83.9978 63.7027 80.5766 64.47C76.5468 65.5097 72.6267 67.4337 69.3189 69.9332C65.996 72.4307 63.3234 75.4289 61.1932 78.4521C57.0273 84.5827 54.7629 90.6041 53.0542 96.3665C51.75 100.798 50.9448 105.257 50.6424 109.629C50.5517 110.113 50.4212 110.588 50.3438 111.074C50.3834 111.852 50.4534 112.612 50.5271 113.366C50.5082 119.303 51.4287 125.015 53.334 130.193C54.2507 132.899 55.9934 135.169 57.7096 137.108C58.2975 137.766 58.9042 138.382 59.5072 139.005C63.6107 145.613 69.3964 152.707 69.3964 155.738C81.2627 164.986 97.5388 164.968 112.494 164.541C135.23 163.89 157.969 163.242 180.705 162.592C182.777 162.824 184.869 163.152 186.784 163.842L187.145 162.407C196.04 162.152 204.937 161.899 213.832 161.646C232.508 163.593 258.759 162.768 281.098 162.808C285.914 162.735 289.02 160.054 293.84 159.979C296.123 160.474 298.393 160.965 300.665 161.458C305.496 161.389 312.873 160.748 315.155 161.245C324.263 163.211 337.464 163.273 351.052 163.002C364.66 162.676 378.533 162.271 389.466 162.536C396.733 162.716 404.264 162.022 412.113 160.645C419.959 159.169 428.166 157.069 436.742 153.559C438.621 152.958 440.539 152.036 442.56 151.023C443.569 150.541 444.611 149.814 445.665 149.168C446.728 148.502 447.801 147.796 448.792 146.96C452.959 143.822 456.77 139.669 460.046 134.911C463.317 130.147 466.026 124.731 467.875 118.915C469.674 113.082 470.6 106.832 470.343 100.623C470.086 98.9963 469.615 97.3831 469.098 95.7967Z" fill="#D8CCEA"/>
<path d="M276.137 168.701C275.092 168.689 274.02 168.678 273.033 168.651C274.305 168.697 275.32 168.71 276.137 168.701Z" fill="#D8CCEA"/>
<path d="M274.694 165.89C274.505 166.651 283.272 168.625 276.137 168.704C280.147 168.752 283.731 168.84 280.32 170.229C288.043 170.11 280.858 168.113 285.958 166.985C281.769 168.309 278.444 166.254 274.694 165.89Z" fill="#D8CCEA"/>
<path d="M304.13 167.338C300.271 167.399 296.838 165.763 293.566 167.288C297.318 167.652 301.991 168.212 304.13 167.338Z" fill="#D8CCEA"/>
<path d="M295.118 172.532L297.155 172.079L291.787 170.476L295.118 172.532Z" fill="#D8CCEA"/>
<path d="M316.536 170.378C317.995 170.643 319.13 170.99 319.398 171.531L305.783 172.164L318.06 173.029C325.478 171.592 321.855 170.957 316.536 170.378Z" fill="#D8CCEA"/>
<path d="M300.744 169.29C300.612 169.785 306.736 169.611 312.03 169.904C308.486 169.52 305.29 169.077 304.819 168.385L300.744 169.29Z" fill="#D8CCEA"/>
<path d="M316.545 170.378C315.26 170.152 313.731 169.994 312.041 169.904C313.555 170.064 315.099 170.227 316.545 170.378Z" fill="#D8CCEA"/>
<path d="M329.429 173.7L331.363 173.672L331.887 171.556C327.936 172.037 329.532 173.276 329.429 173.7Z" fill="#D8CCEA"/>
<path d="M344.432 175.152C350.106 175.492 346.053 176.397 345.832 177.239C349.372 178.45 356.498 176.867 359.447 176.616C354.996 175.21 350.108 175.492 344.432 175.152Z" fill="#D8CCEA"/>
<path d="M362.548 179.517L350.971 179.689C353.271 181.974 357.666 179.802 362.548 179.517Z" fill="#D8CCEA"/>
<path d="M374.906 176.374L381.346 178.145C382.414 177.903 381.556 177.301 383.705 176.813C381.879 176.035 377.785 176.543 374.906 176.374Z" fill="#D8CCEA"/>
<path d="M63.4464 40.0408C64.6069 38.627 65.7675 36.9793 66.928 35.3296C70.1772 30.3863 74.5869 27.7929 79.2253 26.383C80.6183 25.9111 82.7069 26.617 83.8675 27.3248C85.9561 28.2667 87.8122 28.9726 90.5983 28.2667C93.3825 27.7948 95.2386 28.2667 95.9361 29.9144C95.9361 30.8563 95.4711 32.5059 95.7036 32.9759C95.9361 34.6256 95.9361 36.0393 94.543 38.159C94.078 38.393 94.3105 38.8649 94.3105 39.3368C94.078 44.7501 95.4711 40.0427 93.15 45.4598C91.9894 48.0494 91.757 50.4031 90.8289 52.5227C79.6922 81.0201 91.2939 66.8903 100.576 54.4084C101.504 51.8168 103.13 49.6972 105.219 47.5775C108.468 42.8663 112.412 38.6271 115.662 33.6838C120.999 26.617 127.263 20.258 134.225 15.3147C136.778 13.665 139.099 11.0754 141.42 11.5454C143.742 11.7813 146.061 12.7232 147.686 14.1369C149.31 15.5507 150.703 17.1984 151.631 19.0802C152.096 19.3162 152.327 19.5521 152.559 19.5521C155.808 20.258 155.808 23.5554 155.808 26.6169C155.576 27.3248 155.113 28.0307 155.113 28.5026C152.096 35.3296 149.077 41.6885 148.149 48.0475C147.686 51.3449 147.221 54.8783 146.989 57.9379C146.526 60.9994 146.293 64.5328 145.598 68.0662C145.133 71.1277 145.133 74.1892 142.581 77.2488C142.581 77.4848 142.349 77.7206 142.581 78.1906C144.205 79.6044 141.884 81.254 141.188 82.9018C140.955 83.6077 140.492 84.5515 140.955 85.2574C141.651 87.8471 141.42 90.2027 139.332 93.2642C139.332 93.5001 139.099 93.972 139.099 94.6779C138.404 96.7976 137.939 98.6813 137.474 100.567C137.706 100.567 137.706 100.331 138.634 99.8591C137.939 103.157 133.996 105.984 135.157 109.045C136.78 109.045 136.548 110.693 136.085 112.813C134.924 117.524 134.459 121.999 132.37 126.945C132.603 127.18 132.37 127.416 132.603 127.65C133.764 130.006 130.979 133.304 131.675 136.365C131.907 138.251 130.514 140.604 131.675 142.96C131.675 144.138 130.747 146.021 129.121 147.671C128.658 148.613 127.498 149.319 126.57 150.261C125.177 153.558 124.944 153.794 121.927 154.03C121.232 154.03 120.534 154.266 119.143 154.502C117.518 154.736 116.357 154.736 115.662 153.558C115.429 153.088 114.734 152.852 113.805 152.616C110.789 151.91 109.859 149.087 111.252 146.021C113.573 137.545 114.501 130.008 115.662 122.003C116.357 120.118 116.822 117.764 117.285 115.878C118.215 113.053 118.911 109.755 120.304 106.458C120.304 107.4 119.839 108.577 119.839 109.755C120.534 109.285 120.534 109.285 120.767 109.285C121.232 107.636 121.927 105.988 122.16 104.102C122.855 99.8628 124.942 95.3877 124.481 91.3862C124.249 91.1503 124.249 90.6803 124.481 90.4443C126.8 88.0887 124.712 85.7331 126.57 83.3814C127.265 82.6716 127.033 81.7317 127.265 81.2617C126.8 78.6702 127.73 76.0787 129.354 73.489C129.354 73.0172 129.354 72.5472 129.354 72.3113C129.354 72.3113 129.354 72.3112 129.121 72.0753C127.498 75.6087 126.105 79.1421 124.712 82.6716C124.481 82.6716 124.249 82.6716 124.016 82.6716C127.498 61.9489 128.426 59.3574 112.647 81.7298C112.414 81.4939 112.182 81.2599 112.182 81.0239C111.719 81.0239 111.486 81.2599 111.486 81.2599C111.486 81.9658 111.021 82.6716 110.791 83.3795C109.63 86.441 108.47 87.6187 105.453 89.5005C104.755 89.7365 104.292 90.4424 104.292 90.9143C103.132 91.8561 102.667 92.798 102.204 93.7399C99.6502 101.041 84.5649 122.707 80.1571 130.006C78.301 133.304 75.5168 135.187 72.2677 138.251C72.2677 136.837 72.0352 135.895 72.7307 134.953C72.5001 134.953 72.2677 134.953 72.2677 134.953C71.3396 136.601 70.1791 138.015 69.0185 139.662C69.0185 139.428 68.786 139.428 68.5535 139.193C67.1624 142.49 64.8413 143.432 62.2877 144.138C57.6493 145.787 53.9352 146.021 50.2229 144.846C47.9018 144.138 44.8851 143.902 43.0271 142.254C41.4035 141.076 41.171 141.312 42.7965 138.485C45.1139 134.717 47.2025 130.948 49.756 127.65C52.3096 123.883 53.9333 120.824 53.4702 117.526C58.5754 91.3843 72.9614 58.1777 53.9333 88.3228C51.6122 92.0922 49.2949 96.3314 46.0457 99.8609C38.6193 116.11 20.2868 140.134 17.5007 157.562C17.2701 158.971 16.8052 160.859 15.8771 162.743C14.4841 164.862 13.3235 165.098 12.1649 164.156C11.4674 163.92 11.2349 163.921 11.0043 163.685C9.84376 160.859 7.52268 160.387 4.50601 159.917C2.6461 159.681 1.48934 158.503 0.0962991 157.796C-0.136189 157.562 0.0963012 156.384 0.328789 155.912C4.73849 147.907 6.59461 140.37 8.45073 132.598C9.14631 129.772 9.14631 126.709 10.3069 123.647C11.0043 120.114 16.8052 106.22 17.7332 102.688C18.6613 98.9191 19.5912 95.1517 20.5193 91.3824C22.3754 84.0815 23.9972 76.7827 26.0858 69.4819C26.3183 68.0681 27.0157 66.4185 27.0157 64.7707C27.2444 59.3536 29.1043 53.9384 31.1929 48.2854C31.8885 46.6376 32.121 44.752 33.0491 42.8683C33.5122 41.2205 34.2096 39.3387 34.9052 37.6871C35.6008 36.0393 36.5307 35.3315 37.6894 35.8034C38.8499 36.9812 40.4755 37.923 41.636 39.1008C42.3316 40.0427 42.0991 41.4564 42.3316 42.8683C41.636 47.5795 40.4754 52.2868 39.0824 56.998C33.7446 83.1397 53.7008 53.2306 56.4869 48.9932C58.5736 45.9278 61.3577 43.1023 63.4464 40.0408ZM50.6841 134.008C50.9166 133.536 51.1491 133.064 51.8447 131.888C51.8447 131.652 51.8447 131.416 51.8447 130.71C51.3816 131.652 50.6841 132.122 50.4516 132.358C50.4516 133.064 50.4516 133.536 50.221 134.008C50.4516 134.008 50.4516 134.008 50.6841 134.008ZM82.4744 88.083C83.635 86.4353 84.7955 84.3156 85.9561 82.1959C87.3491 78.8985 89.2052 75.601 92.6869 72.7736C93.3825 71.8317 94.078 70.4199 94.078 69.2421C90.5983 72.3036 83.1738 83.8418 80.8527 89.7308C81.5464 89.2609 82.0132 88.7909 82.4744 88.083ZM105.217 56.2921C105.217 55.5842 105.68 54.8783 106.145 54.4084C109.626 50.875 110.787 46.6357 113.571 42.6304C110.787 44.986 103.13 56.0561 101.735 59.3536C103.591 58.6477 104.752 57.4699 105.217 56.2921Z" fill="black"/>
<path d="M154.409 93.2648C151.855 89.0255 150.696 83.8444 149.999 78.4292C149.303 74.4258 150.464 70.6565 152.552 66.891C152.785 66.4191 153.248 65.9491 154.176 65.7132C156.034 64.0654 158.353 62.6517 161.139 61.002C163.228 59.5902 166.01 59.3542 168.566 59.8242C170.422 59.8242 175.525 64.5354 176.686 65.4772C178.079 66.655 179.47 68.0688 181.096 69.0106C183.184 70.8943 184.577 73.0139 185.738 76.0735C186.433 77.9592 186.894 79.607 187.826 81.2567C188.522 83.3763 188.754 85.7281 189.217 88.0837C189.45 90.2033 189.45 91.853 189.915 93.7367C190.146 93.9726 190.146 93.9727 190.146 94.4427C189.45 90.6752 190.378 96.0923 190.146 96.7982C189.915 99.6257 190.611 102.215 189.915 104.807C189.217 106.217 190.61 107.868 192.467 107.868C203.84 107.162 208.246 108.81 219.386 106.927C220.547 106.455 221.707 105.749 223.098 105.041C223.563 104.807 224.259 104.335 224.724 104.099C225.187 104.807 224.956 105.749 224.724 106.219C224.026 107.396 226.347 107.868 225.419 108.81C218.46 116.347 197.109 116.111 188.756 116.111C188.524 116.111 188.291 116.111 188.059 116.111C187.363 116.111 186.668 116.347 186.668 116.819C186.668 117.289 186.435 117.525 186.203 117.995C185.507 122 183.419 125.767 181.793 129.773C180.632 132.598 179.009 134.718 177.383 136.836C176.455 138.249 175.527 139.897 174.138 140.839C173.673 141.075 173.206 141.547 172.512 142.017C172.047 142.253 171.352 142.723 171.119 143.431C169.263 145.55 167.175 147.198 164.621 147.906C164.158 147.906 162.997 148.376 162.302 148.848C159.053 149.79 155.803 149.554 152.787 149.084C148.61 148.612 145.824 145.55 143.502 141.547C142.807 139.661 142.111 137.308 141.414 135.186C140.951 130.947 140.718 126.709 141.183 122.236C141.646 117.761 143.039 113.521 145.128 109.282C147.217 104.099 150.233 99.6257 153.715 95.3844C154.41 95.1504 154.41 94.6786 154.643 93.9746C154.641 93.7367 154.641 93.5008 154.409 93.2648ZM182.024 83.8444C181.559 81.0188 181.096 78.8991 180.4 76.3076C179.702 73.952 178.774 72.0683 177.151 70.6545C176.223 69.7127 175.525 68.5349 174.134 67.829C172.741 66.6512 171.581 65.7093 169.955 64.7675C167.171 62.4119 162.067 67.3571 160.44 69.0068C154.174 77.9573 160.209 90.2014 166.01 96.5604C172.741 109.986 185.038 105.275 182.254 89.4974C182.719 87.6137 182.719 85.494 182.024 83.8444ZM161.372 129.771C161.139 130.945 161.139 132.36 161.139 133.538C160.674 134.01 161.139 134.244 161.372 134.716C161.835 135.894 162.761 137.072 163.924 137.542C164.156 137.542 164.156 137.541 164.389 137.307C164.619 137.072 165.084 136.836 165.317 136.6C169.261 132.36 172.044 126.943 174.365 121.528C175.525 119.644 175.99 117.525 176.686 115.875C171.348 113.521 168.798 115.641 165.778 119.644C163.228 123.408 162.761 125.528 161.372 129.771Z" fill="black"/>
<path d="M288.082 107.163C286.689 109.047 285.296 111.166 283.905 113.048C282.279 115.404 280.886 117.759 279.726 120.349C279.726 120.585 279.726 121.057 279.495 121.057C277.87 123.41 276.478 125.764 274.853 127.648C272.299 130.475 269.98 133.065 267.427 135.656C264.873 138.012 262.321 139.896 259.535 141.545C257.912 142.487 249.557 146.962 247.703 146.962C245.614 147.194 237.955 146.255 235.869 146.962C232.62 147.668 225.656 144.607 222.64 143.429C219.39 142.015 216.374 140.368 213.592 138.248C209.182 134.714 206.861 129.771 206.165 122.94C205.7 118.937 205.7 114.932 206.165 110.928C206.398 108.573 206.861 106.217 207.558 103.865C208.254 102.216 208.717 100.568 209.414 98.9183C211.038 93.7371 213.824 89.4977 216.141 85.0244C216.839 84.0825 217.302 83.1408 217.999 82.1989C219.855 79.3714 221.712 76.7817 224.033 74.8961C226.817 72.5424 229.37 69.9509 232.387 67.8332C234.013 66.6554 235.636 66.1854 237.262 66.1854C237.957 66.1854 238.653 65.9495 239.35 65.7135C241.207 64.7717 243.063 64.2998 244.684 64.5357C244.917 64.7717 244.917 64.7717 244.917 64.5357C247.703 64.2998 250.255 65.2416 252.576 66.8913C252.808 66.8913 253.041 67.1273 253.271 67.1273C253.504 67.1273 253.736 67.1273 253.969 66.8913C254.664 66.4194 255.129 66.1854 255.825 66.6554C256.52 67.3613 256.985 68.0692 256.753 69.247C256.29 70.4248 256.52 71.3666 256.985 72.3084C257.218 72.5444 256.985 73.0143 257.218 73.2503C256.753 73.9562 256.29 74.664 255.825 75.3699C256.057 76.7837 256.29 78.1955 256.753 79.6092C257.218 81.7289 257.449 84.0844 257.449 86.2041C257.449 87.3819 257.449 88.5598 257.22 89.7376C256.292 93.9769 254.899 97.9802 253.273 101.749C252.578 103.397 251.65 104.339 250.257 104.575C249.793 104.575 249.328 104.811 248.865 104.811C248.168 104.811 247.705 104.575 247.472 104.339C246.312 103.161 244.686 102.455 243.295 101.749C243.063 101.514 242.83 101.514 242.598 101.278C241.902 100.806 241.439 100.1 241.67 98.922C241.902 97.7442 242.135 96.5664 242.367 95.6246C243.758 90.9172 244.919 86.442 246.777 81.9667C246.777 81.7308 246.777 81.2608 247.007 80.553C246.544 81.0249 246.312 81.0249 246.079 81.2609C244.686 84.3224 242.367 86.6779 240.509 89.2656C238.653 91.8572 237.031 94.6827 235.638 97.7442C233.782 101.749 231.926 105.517 230.068 109.518C228.212 113.052 227.051 117.055 225.891 121.06C225.428 122.238 225.428 123.414 225.195 124.828C224.963 126.477 225.195 128.125 225.891 129.775C226.588 131.187 227.284 132.836 227.979 134.482C228.444 135.424 229.14 136.366 229.835 137.31C230.996 138.72 236.799 136.366 238.422 136.132C243.529 135.424 254.434 130.715 258.843 126.71C262.325 123.648 268.823 118.941 271.84 115.407C273.001 113.994 274.161 112.58 275.322 111.168C277.41 108.341 283.909 103.631 285.997 100.572C287.154 98.9221 290.868 96.8024 292.031 95.1546C292.726 94.2128 292.031 98.452 293.191 97.7442C292.722 99.8581 289.473 105.511 288.082 107.163Z" fill="black"/>
<path d="M323.341 140.601C324.502 142.957 325.895 145.312 327.286 147.196C328.214 149.081 329.607 150.023 331.231 150.023C334.017 150.729 336.338 150.257 338.659 149.315C340.978 148.61 349.331 141.779 351.885 140.601C352.813 140.131 362.328 129.771 363.488 129.063C367.202 125.059 369.986 120.112 373.003 115.169C375.324 111.402 377.18 107.164 379.501 103.393C379.966 102.451 380.429 101.509 380.894 100.331C381.123 99.1537 381.358 98.4476 381.59 97.5039C382.751 100.801 385.767 98.2118 384.839 100.567C384.374 101.745 384.144 102.921 384.144 103.629C383.911 105.984 380.429 110.692 379.734 112.343C378.573 115.641 377.645 118.702 375.787 121.762V122.234C374.396 125.057 372.309 128.119 370.916 131.18C369.293 133.064 358.385 145.31 356.531 146.962C354.905 148.372 353.744 148.846 352.584 149.314C349.104 151.201 340.054 158.736 336.572 159.678C334.253 160.148 331.7 160.856 329.379 160.856C325.666 161.09 321.952 159.678 319.402 157.086C318.242 155.673 316.849 154.025 315.688 152.377C313.137 147.902 309.887 142.955 307.568 137.773C305.48 135.182 304.782 133.062 302.694 136.126C302.23 136.832 302.23 138.245 301.765 138.951C300.837 140.365 300.142 141.777 299.444 143.191C298.981 144.84 298.053 146.488 297.356 147.666C296.428 148.608 295.732 149.08 294.572 148.844C293.644 148.844 292.25 148.844 291.09 150.021C286.217 152.141 284.363 152.141 280.881 149.08C276.472 146.252 274.848 141.307 273.922 136.126C273.689 135.654 273.689 135.418 273.689 134.712C274.385 131.179 273.689 127.413 273.457 123.642C272.992 118.934 273.457 114.223 273.689 109.512C273.922 107.392 274.385 105.509 274.385 103.389C274.617 96.7942 276.473 90.4372 278.099 84.0782C279.26 80.3089 280.418 76.3055 281.811 72.7721C283.9 66.181 286.684 59.5862 289.47 52.9913C291.094 50.1638 292.022 47.1023 293.647 44.5126C297.592 35.7981 302.695 27.3214 307.338 19.5487C310.819 14.6016 314.068 9.89424 318.013 6.12298C319.637 4.71116 321.262 3.06148 323.118 1.64966C324.744 0.235915 326.833 0.235943 328.921 0C329.152 0 329.617 0.705906 330.082 0.941849C331.238 3.53339 334.026 5.18112 336.348 7.06483C340.292 10.1283 343.774 13.8957 347.021 19.0768C348.412 20.9624 349.34 24.024 349.34 26.8495C349.34 27.3214 349.34 28.2633 349.34 28.9692C349.11 30.147 347.717 31.0889 347.021 31.0889C346.556 30.6189 345.861 30.3829 345.396 30.147C344.933 29.441 344.003 28.9692 343.54 28.2633C341.218 26.3795 339.362 26.6136 336.809 29.2051C334.72 31.0888 332.632 33.6804 330.31 35.8C330.082 36.7419 329.382 37.4478 328.919 38.1556C326.598 41.923 324.045 45.2186 321.723 48.516C321.723 48.9879 321.26 49.6938 321.028 50.1638C320.1 52.5194 319.172 54.8749 317.546 57.4665C315.923 60.7639 314.066 64.0614 312.441 67.8269C311.513 69.4766 310.817 70.8884 309.889 72.7721C308.031 77.2473 305.712 81.9586 303.854 86.6698C301.302 92.319 298.981 98.2098 297.356 104.095C297.125 105.509 296.66 106.451 296.428 107.628C295.732 110.69 295.267 113.987 294.339 116.579C293.411 124.116 295.5 123.88 297.125 121.286C300.605 115.869 303.159 109.512 307.101 104.095C311.048 98.4458 315.456 92.7927 320.33 88.0815C325.436 84.0782 330.078 82.6644 335.414 83.6063C336.571 83.6063 337.502 84.3142 338.198 85.726C338.43 86.4338 338.663 86.6697 339.126 87.3756C340.982 89.9653 341.68 92.7927 341.68 96.0901C341.68 101.743 340.982 107.392 339.126 113.281C338.894 114.223 338.894 114.695 338.663 115.637C337.502 118.698 336.342 121.286 334.253 124.114C332.86 125.291 331.932 126.703 330.772 127.643C329.146 129.767 327.29 131.177 325.434 131.884C324.506 132.119 323.345 132.59 322.417 133.06C321.72 133.06 321.72 134.004 321.024 134.238C321.253 137.069 322.413 138.953 323.341 140.601ZM274.377 118.7C274.377 118.936 274.377 118.936 274.377 119.406C274.377 120.82 274.377 122.234 274.377 123.646C274.842 120.82 274.842 120.584 274.377 118.7ZM316.611 104.097C315.683 106.452 314.987 108.572 313.826 110.222C312.898 112.575 311.505 114.225 310.81 116.345C308.256 120.112 315.448 117.759 316.843 116.345C322.413 112.106 326.358 105.511 329.373 98.2117C333.087 85.9638 328.677 87.1416 322.875 94.6784C320.325 97.502 318.004 100.799 316.611 104.097Z" fill="black"/>
<path d="M394.12 125.527C390.176 127.647 385.072 127.413 382.519 128.119C380.43 128.119 375.092 126.941 373.471 125.999C367.668 122.466 367.435 120.818 366.275 113.046C365.579 111.162 366.042 106.923 367.435 103.153C368.596 97.7361 381.126 78.1893 383.214 73.2441C384.375 70.6525 385.535 68.0629 387.391 65.2355C388.091 63.5877 389.249 63.1158 390.41 62.4099C392.034 61.704 393.655 61.704 394.816 60.5262C398.298 58.6425 395.744 56.9928 398.065 56.7568C400.386 56.7568 402.012 57.6987 403.172 59.3484C404.1 59.5843 404.1 60.7621 405.028 61.704C405.724 62.174 405.491 63.1158 405.491 64.0596C404.1 69.9447 398.993 81.0148 397.604 86.6679C396.443 88.3156 395.978 94.9105 395.515 96.3243C395.05 98.6779 394.587 100.796 393.427 103.151C392.962 105.035 391.801 108.568 392.962 109.51C393.89 110.688 394.355 114.693 395.746 114.221C401.316 111.16 408.742 110.924 411.757 107.158C413.615 104.567 414.776 105.745 416.632 103.389C418.256 101.741 418.721 100.328 419.416 99.1499C420.809 96.0884 421.042 97.0302 422.202 94.4387C423.593 91.3772 425.68 88.5517 427.54 85.9601C428.236 83.8405 429.164 82.4267 430.557 80.543C432.878 79.837 432.645 80.073 433.573 80.307C437.055 80.073 434.036 80.3071 436.125 81.4849C436.59 82.4267 436.125 83.3704 436.822 83.8404C435.197 88.3156 434.966 93.0268 432.878 98.208C432.18 99.8557 432.645 98.208 431.252 100.328C431.485 101.741 430.557 103.861 429.629 105.745C428.699 107.864 428.931 110.452 427.54 112.34C425.682 120.344 424.754 124.584 424.754 125.526C424.058 128.589 432.18 130.709 440.3 128.117C445.638 125.762 455.151 116.579 459.561 109.278C461.186 106.451 462.579 103.625 465.131 99.8557C467.452 95.6164 469.308 102.683 468.38 104.331C467.685 105.509 467.22 106.451 466.987 107.158C465.131 108.57 463.043 116.105 461.421 117.519C460.956 117.989 461.188 118.697 460.028 119.167C457.011 123.172 450.976 129.767 446.337 133.534C444.249 134.006 444.016 134.712 441.928 135.654C440.302 137.304 439.839 137.538 437.751 138.715C436.125 139.423 435.894 139.657 435.197 140.365C433.341 139.893 432.878 140.597 432.18 141.071C427.771 143.663 408.975 144.604 407.582 136.596C406.421 129.295 405.263 125.293 407.351 117.285C407.351 116.579 407.351 116.579 407.351 116.343C404.1 119.642 398.065 122.94 394.12 125.527Z" fill="black"/>
</svg>
