<svg width="269" height="139" viewBox="0 0 269 139" fill="none" xmlns="http://www.w3.org/2000/svg">
<path d="M240.111 137.735H160.344C152.36 137.735 145.887 131.269 145.887 123.293V54.3036C145.887 46.979 147.325 39.869 150.161 33.171C152.898 26.7059 156.815 20.9013 161.803 15.9187C166.791 10.936 172.601 7.02314 179.073 4.28867C184.851 1.84751 183.469 0.368131 189.733 0.026392C190.738 -0.0284687 199.214 0.019219 200.228 0.019219C207.56 0.019219 214.677 1.45566 221.382 4.28867C227.854 7.02323 233.665 10.936 238.653 15.9187C243.64 20.9013 247.558 26.7059 250.295 33.171C253.131 39.869 254.569 46.979 254.569 54.3036V123.293C254.569 131.269 248.096 137.735 240.111 137.735ZM162.868 57.1806H237.587V54.3036C237.587 33.725 220.828 16.983 200.228 16.983C179.628 16.983 162.868 33.725 162.868 54.3036L162.868 57.1806Z" fill="#4F75BA"/>
<path d="M230.486 137.735H150.719C142.735 137.735 136.262 131.269 136.262 123.293V54.3039C136.262 46.9793 137.7 39.8693 140.536 33.1714C143.273 26.7062 147.19 20.9016 152.178 15.919C157.166 10.9364 162.976 7.02345 169.448 4.28899C176.153 1.45597 183.27 0.0195312 190.603 0.0195312C197.935 0.0195312 205.052 1.45597 211.757 4.28899C218.229 7.02355 224.04 10.9364 229.028 15.919C234.015 20.9016 237.932 26.7062 240.67 33.1714C243.506 39.8693 244.944 46.9793 244.944 54.3039V123.293C244.944 131.269 238.471 137.735 230.486 137.735ZM153.243 57.1809H227.962V54.3039C227.962 33.7253 211.203 16.9833 190.603 16.9833C170.003 16.9833 153.243 33.7253 153.243 54.3039V57.1809Z" fill="#739AF0"/>
<path d="M197.327 84.2169C197.327 82.5408 196.711 81.0092 195.694 79.8326C194.762 78.4501 192.833 77.5 190.603 77.5C188.373 77.5 186.444 78.4501 185.511 79.8326C184.495 81.0093 183.879 82.5408 183.879 84.2169C183.879 87.2279 185.862 89.776 188.595 90.629V100.802C188.595 101.622 189.494 102.287 190.603 102.287C191.712 102.287 192.61 101.622 192.61 100.802V90.629C195.343 89.776 197.327 87.2279 197.327 84.2169Z" fill="#4F75BA"/>
<path d="M101.233 75.624C101.106 76.4863 100.12 77.4847 99.068 78.2333C97.9359 79.0391 97.4824 79.8665 97.081 80.2797C96.9325 80.4494 96.8411 80.5427 96.8411 80.5427L95.6328 79.1385C95.6328 79.1385 95.6526 79.1256 95.6884 79.0855C95.9587 78.7914 96.6445 78.0654 97.101 77.2296C98.1022 75.3974 99.5022 75.127 99.5022 75.127C99.5022 75.127 100.84 75.325 101.233 75.624Z" fill="#FFB27D"/>
<path d="M38.809 93.2393L39.6257 93.9018C39.6257 93.9018 41.8598 93.1015 42.3639 95.7534C42.3639 95.7534 42.4982 96.8836 41.7815 96.8858C41.0648 96.8878 41.3606 96.7622 40.3456 96.7919C39.3307 96.8216 38.4896 96.2872 38.341 95.4644L37.8555 94.7673L38.809 93.2393Z" fill="#EA8E50"/>
<path d="M38.7168 94.661C39.3683 93.9813 39.3158 93.479 39.3158 93.479C39.3158 93.479 31.7711 87.3085 31.0059 86.8058C30.4845 86.4632 25.2273 81.4326 22.3308 78.5426C20.9375 77.1523 19.4467 77.6318 17.6209 78.1552L16.1173 78.5862C14.3018 79.1065 13.8296 81.6432 15.3193 82.8757C19.5147 86.3472 26.4941 90.2519 27.8 91.0725C31.0418 93.1096 37.3874 95.5304 37.3874 95.5304C37.3874 95.5304 38.1573 95.2446 38.7168 94.661Z" fill="#992525"/>
<path d="M47.3237 132.572C47.3237 132.572 49.1548 133.943 51.9604 133.218C51.9604 133.218 54.2224 132.704 54.7186 133.831C54.7186 133.831 51.2493 135.591 50.3715 136.073C49.7098 136.436 49.0194 137.008 48.5313 137.451C48.1449 137.802 47.5432 137.754 47.2139 137.35C47.0613 137.162 46.8866 136.939 46.6953 136.68C46.1604 135.956 44.9141 133.617 44.9141 133.617L47.3237 132.572Z" fill="#233862"/>
<path d="M48.4011 131.876C48.4011 131.876 47.2862 134.444 44.7127 133.972C44.7127 133.972 39.4611 129.639 35.8588 125.138C34.6888 123.677 33.6927 122.197 33.1073 120.843C30.7185 115.318 24.2711 107.078 20.1719 102.902L30.428 99.1953C30.428 99.1953 33.7131 105.797 38.084 113.905C41.2339 119.748 44.9469 126.373 48.4011 131.876Z" fill="#2B478B"/>
<path d="M38.084 113.905L35.8588 125.138C34.6888 123.677 33.6927 122.197 33.1073 120.843C30.7185 115.318 24.2711 107.078 20.1719 102.902L30.428 99.1953C30.428 99.1953 33.7131 105.797 38.084 113.905Z" fill="#233862"/>
<path d="M29.6974 134.063C29.6974 134.063 29.5856 136.112 32.0724 136.385C32.0724 136.385 33.4935 136.393 33.4975 137.697L26.2698 137.72C26.2698 137.72 26.06 137.194 26.0091 136.067C25.9699 135.202 26.8486 132.939 26.8486 132.939L29.6974 134.063Z" fill="#233862"/>
<path d="M27.0647 99.1958C27.0647 99.1958 31.6337 104.211 34.534 113.247C36.112 118.163 31.6417 130.523 30.7702 134.817C30.7702 134.817 27.7713 135.071 25.7209 134.279C25.7209 134.279 25.565 125.41 26.7643 118.573C27.4354 114.747 20.7485 110.391 17.8267 103.477C15.8388 98.7744 18.257 98.8542 21.2289 98.7412L27.0647 99.1958Z" fill="#2B478B"/>
<path d="M21.7892 76.8202C19.2471 78.2542 14.043 76.9316 14.043 76.9316C14.043 76.9316 16.1564 74.5181 15.1961 70.6309L17.192 71.6434L19.3359 72.7311C19.3359 72.7311 19.4745 73.4177 19.5709 74.6507C19.5954 74.9682 19.6174 75.3229 19.6326 75.7106C20.9379 76.1057 21.7892 76.8202 21.7892 76.8202Z" fill="#FFB07B"/>
<path d="M31.1078 98.9367C31.1078 99.383 30.593 99.5967 30.4837 99.6184C29.4584 99.8056 26.5956 100.918 24.0167 101.173C21.8451 101.4 19.8291 101.185 17.6141 100.74C17.3208 100.681 16.6322 100.496 16.5833 100.215C16.5222 99.9088 8.03979 82.9413 14.6338 75.6526C14.7886 75.4817 16.0903 75.7897 17.2807 76.0719C18.3801 76.3324 19.3884 76.1872 20.2888 75.8264L21.4051 76.4132C22.776 77.1763 25.37 79.8875 25.6734 82.0147C25.8276 83.0967 26.4469 83.8978 26.6262 84.8495C26.6926 85.2015 26.7605 85.5455 26.8299 85.8805C26.965 86.5378 27.1042 87.1632 27.2474 87.7581C27.6352 89.3671 28.0446 90.7523 28.4466 91.9488C28.8744 93.2193 29.294 94.2761 29.6689 95.16C30.1551 96.3064 30.5658 97.1631 30.8225 97.819C31.0039 98.2808 31.1078 98.6429 31.1078 98.9367Z" fill="#E4002B"/>
<path d="M30.8239 97.819C18.8499 92.1835 14.7031 81.3623 14.7031 81.3623C14.7031 81.3623 24.4316 84.9473 26.8313 85.8805C26.9664 86.5378 27.1056 87.1633 27.2488 87.7582C27.6366 89.3671 28.046 90.7523 28.448 91.9489C28.8758 93.2193 29.2954 94.2762 29.6703 95.16C30.1564 96.3063 30.5672 97.1631 30.8239 97.819Z" fill="#992525"/>
<path d="M46.0163 95.0387H39.4057C33.0649 95.0387 27.9062 89.8854 27.9062 83.5512V62.0354C27.9062 55.7011 33.0649 50.5479 39.4057 50.5479H46.0163C52.3571 50.5479 57.5157 55.7011 57.5157 62.0354V83.5511C57.5157 89.8854 52.3571 95.0387 46.0163 95.0387ZM39.4057 57.3333C36.8102 57.3333 34.6987 59.4426 34.6987 62.0355V83.5512C34.6987 86.144 36.8103 88.2534 39.4057 88.2534H46.0163C48.6117 88.2534 50.7233 86.1441 50.7233 83.5512V62.0354C50.7233 59.4426 48.6117 57.3332 46.0163 57.3332L39.4057 57.3333Z" fill="#F99746"/>
<path d="M115.342 76.7561H54.7227V68.8301H115.342C117.533 68.8301 119.31 70.6043 119.31 72.7931C119.31 74.9818 117.533 76.7561 115.342 76.7561Z" fill="#F99746"/>
<path d="M110.918 93.8732C109.16 93.8732 107.734 92.4492 107.734 90.6927V75.1602H114.102V90.6927C114.102 92.4492 112.677 93.8732 110.918 93.8732Z" fill="#F99746"/>
<path d="M37.829 94.5525L38.8637 94.9315C38.8637 94.9315 40.9357 93.4679 42.2258 95.8483C42.2258 95.8483 42.6924 96.8881 41.9537 97.1138C41.2151 97.3397 41.4838 97.1271 40.4455 97.4724C39.4073 97.8179 38.3845 97.5691 37.9924 96.8282L37.2891 96.3127L37.829 94.5525Z" fill="#FFB07B"/>
<path d="M38.6821 96.0146C39.0647 95.0176 39.2393 94.5659 39.2393 94.5659C39.2393 94.5659 31.4208 88.1997 30.6242 87.6537C30.0815 87.2816 24.6769 83.2461 22.0421 80.101C20.735 78.541 18.6742 77.8279 16.6812 78.2454L15.04 78.5892C13.0582 79.0044 12.4142 81.5103 13.9516 82.8267C18.2812 86.5346 25.584 90.8354 26.9455 91.7299C30.3256 93.9506 37.802 97.0623 37.802 97.0623C37.802 97.0623 38.3816 96.7978 38.6821 96.0146Z" fill="#E4002B"/>
<path d="M19.5708 74.6508C17.0709 74.791 15.4453 72.7293 15.4453 72.7293C15.4453 72.7293 16.5756 72.1039 17.1919 71.6436L19.3357 72.7313C19.3357 72.7313 19.4744 73.4179 19.5708 74.6508Z" fill="#EA8E50"/>
<path d="M20.6355 72.0872C20.6355 72.0872 16.8479 74.8025 15.1915 72.4202C13.5352 70.0378 11.9307 68.7839 14.279 66.9495C16.6273 65.1151 17.7343 65.6947 18.4807 66.3555C19.2272 67.0164 21.5782 71.3194 20.6355 72.0872Z" fill="#FFB07B"/>
<path d="M18.8805 64.2037C18.7447 63.288 18.4391 62.6436 18.4391 62.6436C18.4391 62.6436 18.2015 63.6271 16.402 63.4914C14.6026 63.3558 11.7506 63.6682 10.8 65.7166C10.7396 65.8469 10.6856 65.9811 10.6377 66.1184C10.4657 65.6643 10.4242 64.9838 10.4242 64.9838C10.0823 65.8655 10.4242 66.9686 10.4242 66.9686H10.4244C10.4192 67.0007 10.415 67.033 10.4104 67.0652C10.0132 67.4006 9.67969 68.4432 9.67969 68.4432C9.79959 68.1525 10.0919 67.9627 10.3524 67.8458C10.3444 69.4398 10.9915 70.9979 12.1271 71.4618C13.7878 72.1401 13.7746 71.6227 15.4448 72.7294C15.4448 72.7294 15.8929 72.1741 15.5873 71.801C15.2818 71.4279 14.1274 70.8852 14.7725 70.3426C15.4176 69.8 15.6552 70.4104 15.8929 70.0374C16.1306 69.6643 14.9423 68.5789 16.47 67.5615C17.9977 66.5439 19.0164 65.1194 18.8805 64.2037Z" fill="#233862"/>
<path d="M85.2241 135.576L83.8286 136.095C83.8286 136.095 77.7672 127.697 77.0209 120.308C76.8876 118.988 76.9322 117.71 77.2204 116.53C77.2204 116.53 77.1612 116.192 77.0575 115.595C77.0096 115.316 76.9503 114.98 76.8831 114.595C76.6861 113.467 76.4149 111.924 76.1049 110.167C75.3918 106.123 74.4678 100.953 73.75 97.1531L74.126 97.0325L78.1945 95.7214L79.0354 93.0536L82.0649 92.2568C82.0649 92.2568 82.7416 93.5794 83.3466 99.8266C83.4582 100.646 83.5597 101.55 83.636 102.53C83.8718 105.521 83.889 109.231 83.3477 113.473C83.2088 114.559 83.0333 115.68 82.8156 116.832C82.6562 117.676 82.6322 118.827 82.6995 120.148C83.0046 126.188 85.2241 135.576 85.2241 135.576Z" fill="#E4002B"/>
<path d="M83.6359 102.53L77.0575 115.595C77.0096 115.316 76.9503 114.98 76.8831 114.595C76.6861 113.467 76.4149 111.924 76.1049 110.167C75.3917 106.123 74.4678 100.953 73.75 97.1531L74.126 97.0325L78.1945 95.7214L79.0354 93.0536L82.0649 92.2568C82.0649 92.2568 82.7416 93.5794 83.3466 99.8266C83.4581 100.646 83.5596 101.55 83.6359 102.53Z" fill="#992525"/>
<path d="M80.744 93.9335L80.5918 92.6289C78.0404 93.3059 71.2234 90.7373 71.2234 90.7373C71.2234 90.7373 68.7516 92.9077 69.0762 98.1103C69.2345 100.65 69.5239 111.44 69.8261 114.633C69.9354 115.791 70.031 116.614 70.07 116.943C70.0709 116.945 70.0709 116.945 70.0709 116.946C70.0828 117.047 70.0477 117.141 69.9967 117.229C69.5518 117.983 69.1835 118.769 68.8812 119.572C65.9153 127.468 69.3381 137.191 69.3381 137.191L70.2263 136.834C70.2263 136.834 72.1741 126.013 73.7568 121.232C74.0255 120.421 74.283 119.784 74.519 119.403C75.2071 118.294 75.8457 116.481 76.4254 114.325C77.5208 110.249 78.4027 104.946 78.9895 100.853C79.0705 100.856 80.744 93.9335 80.744 93.9335Z" fill="#E4002B"/>
<path d="M96.3082 77.7448C97.0787 78.0516 97.8331 78.6557 98.5794 79.4087C98.5794 79.4087 94.228 86.9899 91.7233 88.0925C90.3484 88.6978 86.0464 84.1061 85.1572 81.5334C84.9398 80.9044 85.7423 78.8008 85.4795 78.3583C85.1318 77.7758 84.9637 77.2046 84.8943 76.7134C84.8779 76.6391 84.8615 76.5649 84.8673 76.4826C84.7847 75.7009 84.9459 75.1679 84.9459 75.1679C85.0454 74.9122 85.3272 74.8023 85.7453 74.8089L85.8932 74.8086C88.1466 76.1333 91.1075 82.6391 91.5959 82.7914C92.8695 81.1799 96.3082 77.7448 96.3082 77.7448Z" fill="#2C3A64"/>
<path d="M85.6149 78.1095C84.814 78.4806 83.8466 78.7332 82.6767 78.797C78.2901 79.0371 77.2944 75.1958 77.1133 72.6464C77.7456 72.4177 78.2993 72.4393 78.6183 72.4563C78.9294 72.4735 79.2541 72.5053 79.5218 72.5383C80.0584 72.2583 81.0223 70.8982 81.5794 68.623L81.7685 68.7107L84.9336 70.1972C84.9336 70.1972 84.5975 71.2261 84.3491 72.2105C84.1554 72.9811 84.0164 73.7254 84.1327 73.9336C84.3822 74.035 84.5314 74.0987 84.5314 74.0987C84.5314 74.0987 84.5314 74.0998 84.5326 74.102C84.5645 74.1829 85.2527 75.9345 85.6149 78.1095Z" fill="#FFB27D"/>
<path d="M86.7133 80.9843C86.6802 81.072 86.6438 81.1574 86.6039 81.245C85.4929 83.6351 83.4365 93.5359 83.4365 93.5359C83.7293 95.3159 70.0448 93.1864 70.0095 91.5657C69.5275 89.8471 71.7196 87.086 72.9557 85.7008C73.1106 85.5268 73.2496 85.34 73.3704 85.1431C73.6757 84.6491 73.8695 84.0914 73.9309 83.5087C74.1737 81.2112 73.2701 75.9126 73.5138 74.8889C73.6091 74.4887 75.4212 76.7788 75.6377 76.549C75.8758 76.2986 76.0251 76.0425 76.0421 75.7534C76.0546 75.5349 76.0477 75.3106 76.0251 75.0864C76.0148 74.9805 76.0011 74.8747 75.9851 74.7688C75.8143 73.6568 73.6856 74.1316 73.6856 74.1316C74.4658 72.2555 78.6201 72.4053 78.6193 72.4561C78.6184 72.507 78.6169 72.5723 78.6158 72.7623C78.609 73.5259 78.6158 75.487 78.8609 75.858C79.1673 76.3201 84.774 78.3449 85.0701 77.7177C85.3618 77.1009 84.5632 74.2111 84.5335 74.1018C84.5323 74.0995 84.5323 74.0985 84.5323 74.0985C85.1461 74.3474 85.8927 74.8084 85.8927 74.8084C86.5968 76.2179 87.5882 78.6658 86.7133 80.9843Z" fill="#2B478B"/>
<path d="M82.9386 60.3323C82.9317 60.1423 82.7845 58.0952 79.6632 57.9883C79.6632 57.9883 81.1981 58.1711 81.4632 58.8452C81.4632 58.8452 80.4181 58.0122 79.5669 58.2802C78.716 58.5481 78.216 60.0377 78.211 60.5276C78.206 61.0175 78.6789 62.597 79.2191 62.7313C79.4236 62.7821 79.6593 62.7685 79.8732 62.732C79.7295 62.9562 79.5887 63.2035 79.454 63.4797C78.2085 66.0337 79.493 68.5298 80.5474 68.254C81.2236 68.0772 81.415 69.23 81.415 69.23L87.9849 63.9166C87.9849 63.9166 85.5718 58.9285 82.9386 60.3323Z" fill="#E4002B"/>
<path d="M84.9349 70.1983C84.9349 70.1983 84.5984 71.2262 84.3505 72.2116C82.5003 71.696 81.9387 69.7533 81.7695 68.7119L84.9349 70.1983Z" fill="#ED985F"/>
<path d="M85.3248 71.2867C85.3248 71.2867 80.8986 70.2634 81.5789 67.5197C82.2593 64.776 82.1462 62.7961 85.001 63.3334C87.8558 63.8707 88.1431 65.0531 88.139 66.0241C88.1349 66.995 86.4936 71.4821 85.3248 71.2867Z" fill="#FFB27D"/>
<path d="M88.3873 64.4664C87.9114 63.4719 87.3514 63.525 87.0011 63.7013C84.9213 61.779 82.8814 63.3494 82.8814 63.3494C82.0961 65.2442 80.3945 66.0185 80.3945 66.0185C80.3945 66.0185 81.0745 66.714 83.0452 66.6987C83.6473 66.6941 84.2525 66.4179 84.8031 66.0375C83.7409 67.1063 82.4953 67.757 82.4953 67.757C84.9624 67.2853 86.6167 64.4323 86.7861 64.1292C86.9951 64.4375 87.3948 65.0938 87.4285 65.648C87.4743 66.4011 87.2148 67.8636 87.6466 67.919C87.6466 67.919 89.1008 65.9578 88.3873 64.4664Z" fill="#E4002B"/>
<path d="M74.5008 137.917H67.4722C67.4722 137.917 67.3037 136.846 67.6709 136.035C68.0226 135.256 68.5736 134.902 68.4417 133.959C68.8884 134.418 69.6162 134.933 70.6324 134.796C70.7569 134.998 71.4361 136.077 71.852 136.375C72.3112 136.705 74.3594 136.588 74.5008 137.917Z" fill="#233862"/>
<path d="M89.5915 137.916H82.5628C82.5628 137.916 82.3 136.796 82.7615 136.034C83.1699 135.36 83.0135 134.976 82.7109 134.418C83.0293 134.548 83.4413 134.667 83.8948 134.641C84.2449 134.621 84.6153 134.462 84.94 134.273C85.2425 134.618 86.5378 136.084 86.9426 136.375C87.4019 136.705 89.4501 136.587 89.5915 137.916Z" fill="#233862"/>
<path d="M99.1523 76.756H109.85L109.256 72.6113L99.7042 72.9947L99.1523 76.756Z" fill="#F99746"/>
<path d="M101.029 68.8306C100.53 69.3271 100.542 70.9178 99.4899 71.6666C98.3578 72.4724 97.9043 73.2998 97.5029 73.7129C97.3543 73.8826 97.263 73.976 97.263 73.976L96.0547 72.5718C96.0547 72.5718 96.0745 72.5589 96.1103 72.5188C96.3806 72.2246 97.0663 71.4987 97.5229 70.663C98.5241 68.8307 99.9241 68.5603 99.9241 68.5603C99.9241 68.5603 100.636 68.5316 101.029 68.8306Z" fill="#FFB27D"/>
<path d="M96.7946 71.4688L98.5776 73.462C98.5776 73.462 93.8128 77.6055 92.8182 78.4663C92.1109 79.0672 91.444 79.5573 90.9 79.838C90.846 79.8675 90.7972 79.8878 90.734 79.912C89.3351 80.5238 86.3149 80.4557 83.2963 80.0095C82.879 79.9488 82.4672 79.8788 82.0644 79.8144C80.5763 79.5548 79.1601 79.2149 77.9932 78.8254C77.2935 78.5993 76.6751 78.3597 76.1996 78.1058C76.0303 78.019 75.8701 77.9375 75.7295 77.8429C73.3691 76.4305 73.4833 75.1182 73.5282 74.647C73.573 74.1758 73.9126 73.5538 74.7007 73.2984C76.5736 72.6914 82.8573 75.1107 83.7829 75.2855C84.3383 75.4028 85.7838 75.9141 86.2701 76.0033C87.201 76.1691 87.97 76.2768 88.4954 76.2786C88.836 76.2822 89.4371 76.0715 90.1636 75.751C91.431 75.1967 96.7946 71.4688 96.7946 71.4688Z" fill="#253D78"/>
<path d="M97.4952 77.4805C97.3465 77.2366 97.332 76.8416 97.332 76.8416C97.5376 76.3139 97.9942 75.7199 98.164 75.6032C98.3339 75.4866 98.5569 75.2002 98.61 75.3911C98.663 75.582 98.4082 76.579 98.1109 76.9713C97.8137 77.3639 97.4952 77.4805 97.4952 77.4805Z" fill="#FFB27D"/>
<path d="M203.481 53.5668C204.981 56.1742 206.867 57.1807 206.867 57.1807H214.714C214.714 57.1807 202.337 51.5778 203.481 53.5668Z" fill="#ED7D2B"/>
<path d="M209.042 73.8765C209.246 74.1106 209.423 74.0978 209.322 74.3771C209.322 74.3783 209.276 74.5157 209.275 74.5168C209.088 75.0335 208.735 75.3961 208.016 75.9722C207.925 76.0462 207.831 76.1078 207.76 76.1701C207.741 76.1865 207.614 76.2118 207.597 76.2283C207.582 76.241 207.471 76.4713 207.457 76.4834C206.787 77.1002 206.924 76.9211 205.72 78.1727C204.348 79.5988 204.388 79.4513 204.12 79.3214C203.892 79.2107 203.798 78.9452 204.31 78.0952C204.335 78.0542 204.359 78.0126 204.385 77.9712C204.453 77.8582 204.521 77.7435 204.588 77.6298C205.188 76.6068 205.034 76.1266 204.892 74.6041C204.776 73.3668 202.965 67.6916 202.965 67.6916L205.594 67.2393C205.594 67.2393 206.386 71.7583 207.258 72.4543C207.725 72.8252 208.247 72.8298 208.695 73.1048C208.727 73.1239 208.758 73.1435 208.789 73.1637C209.044 73.3323 208.837 73.6419 209.042 73.8765Z" fill="#FFB27D"/>
<path d="M209.508 73.741C209.712 73.9752 209.739 74.2367 209.637 74.5161C209.637 74.5173 209.637 74.5189 209.635 74.52C209.406 75.0361 208.803 75.6101 208.109 76.1844C208.018 76.2597 207.938 76.3288 207.867 76.3933C207.848 76.4097 207.83 76.4261 207.812 76.4425C207.798 76.4552 207.784 76.4684 207.77 76.4806C207.1 77.0974 207.352 77.2387 206.149 78.4902C204.777 79.9163 203.832 79.9419 203.563 79.8119C203.336 79.7013 203.798 78.9449 204.31 78.0949C204.577 77.9971 205.817 77.4936 206.755 76.2946C207.582 75.2415 208.133 73.8883 208.695 73.1045C208.727 73.1236 208.758 73.1432 208.788 73.1634C209.043 73.3321 209.303 73.5063 209.508 73.741Z" fill="#E4002B"/>
<path d="M187.818 71.9433C187.656 72.754 187.129 72.5266 185.837 72.2111C184.544 71.8955 184.844 72.205 183.005 72.0015C181.165 71.7981 180.998 71.5064 180.942 71.2331C180.892 70.9907 181.276 70.8267 182.251 70.7145C182.374 70.7007 182.497 70.6855 182.62 70.6704C183.721 70.5325 184.527 69.8228 185.527 69.2402C186.474 68.6883 187.887 66.4395 187.887 66.4395L190.41 66.6391C190.41 66.6391 189.086 68.6477 188.574 69.521C188.273 70.0346 188.289 70.7138 188.326 71.2383C188.346 71.5233 187.876 71.6578 187.818 71.9433Z" fill="#FFB27D"/>
<path d="M185.694 72.4608C184.401 72.1452 184.709 72.5203 182.869 72.3169C181.029 72.1135 180.472 71.4283 180.416 71.155C180.366 70.9126 181.275 70.8271 182.25 70.7148L182.259 70.7336C182.259 70.7336 183.362 71.5149 184.893 71.5515C186.141 71.5818 187.463 71.2246 188.325 71.2386C188.344 71.5238 188.363 71.8151 188.306 72.1007C188.143 72.9115 186.986 72.7763 185.694 72.4608Z" fill="#E4002B"/>
<path d="M197.973 55.9861L200.331 62.3253L203.41 70.6026C203.41 70.6026 204.245 70.6832 205.045 70.4533C205.782 70.2405 206.627 69.684 206.627 69.684C206.627 69.684 205.772 60.7966 204.178 55.6949C203.769 54.3853 203.311 53.3261 202.805 52.7299C200.333 49.8111 197.973 55.9861 197.973 55.9861Z" fill="#ED7D2B"/>
<path d="M200.371 45.9184C201.916 45.4206 206.323 46.0598 210.749 46.9254L211.676 45.3982L221.237 44.6523C221.237 44.6523 224.387 51.6397 222.665 56.0951C222.246 57.1803 220.877 57.1798 220.876 57.1802C220.876 57.1802 215.217 57.1801 213.369 57.1801C208.614 57.1801 203.306 53.9149 202.619 53.7778C201.495 53.5532 201.046 55.7988 199.922 58.1566C198.798 60.5145 189.357 68.5985 189.357 68.5985C189.357 68.5985 187.906 68.6128 187.306 68.3882C186.662 68.1467 186.426 67.833 186.426 67.833C186.426 67.833 196.887 47.0413 200.371 45.9184Z" fill="#F99746"/>
<path d="M211.731 32.245C215.136 34.1178 222.042 37.9999 222.078 37.9749C222.078 37.9749 224.617 38.9305 226.057 37.975C228.458 36.3824 229.745 32.0964 225.355 28.408C223.166 26.5684 221.61 26.1205 221.374 23.1832C221.246 21.5897 219.065 16.3305 215.442 16.8168C215.139 16.8574 214.834 16.8865 214.529 16.8768C214.106 16.8631 213.407 16.9248 212.69 17.351C210.64 18.5706 206.627 31.5201 211.731 32.245Z" fill="#233862"/>
<path d="M214.586 30.6507C214.571 30.6604 216.262 31.2368 217.392 30.7368C218.455 30.2675 219.26 28.5201 219.245 28.5191C218.761 28.4968 218.23 28.0745 217.821 25.3027L217.615 25.3766L214.152 26.6213C214.152 26.6213 214.403 27.7312 214.565 28.7879C214.702 29.6752 214.776 30.5252 214.586 30.6507Z" fill="#FFB27D"/>
<path d="M214.152 26.6216C214.152 26.6216 214.403 27.7316 214.565 28.7883C216.554 28.4307 217.335 26.4512 217.615 25.377L214.152 26.6216Z" fill="#ED975D"/>
<path d="M213.635 27.7234C213.635 27.7234 218.373 27.0882 217.932 24.1469C217.49 21.2057 217.805 19.1429 214.761 19.4241C211.717 19.7054 211.299 20.9155 211.208 21.9329C211.116 22.9503 212.392 27.8127 213.635 27.7234Z" fill="#FFB27D"/>
<path d="M211.383 20.321C211.383 20.321 214.416 22.9318 216.479 23.1423C218.542 23.3528 219.322 22.6914 219.322 22.6914C219.322 22.6914 218.106 21.6828 217.375 20.0552C217.159 19.5754 216.703 19.2462 216.179 19.201C214.706 19.074 211.914 19.0161 211.383 20.321Z" fill="#233862"/>
<path d="M213.278 20.0867C213.278 20.0867 212.263 21.0666 211.944 21.7935C211.635 22.495 211.543 24.1725 211.788 24.8389C211.788 24.8389 210.208 21.7683 211.103 20.2764C212.052 18.6944 213.278 20.0867 213.278 20.0867Z" fill="#233862"/>
<path d="M210.599 37.6232C210.742 47.2034 210.638 45.2015 211.687 46.1106C211.94 46.3295 212.65 46.46 213.586 46.5216C216.526 46.7167 221.696 46.2326 221.892 45.6897C222.571 43.8112 222.092 43.2276 222.658 40.3517C222.717 40.0459 222.79 39.7148 222.875 39.3543C223.347 37.379 223.806 36.7071 222.132 33.5337C220.614 30.6592 219.037 28.3262 218.895 28.4104C214.89 30.7854 214.567 28.7891 214.567 28.7891C214.567 28.7891 210.528 32.9502 210.599 37.6232Z" fill="#E4002B"/>
<path d="M200.332 62.3257L203.411 70.603C203.411 70.603 204.246 70.6836 205.046 70.4537C205.783 70.241 206.628 69.6844 206.628 69.6844C206.628 69.6844 205.773 60.797 204.179 55.6953L200.332 62.3257Z" fill="#F99746"/>
<path d="M214.566 28.7881C214.566 28.7881 210.445 29.4861 209.961 31.2587C209.477 33.0312 206.629 43.4517 206.629 43.4517C206.629 43.4517 208.724 43.8277 209.692 42.8608C210.66 41.8939 213.06 33.8905 213.06 33.8905L214.566 28.7881Z" fill="#E4002B"/>
<path d="M213.582 46.5211C216.523 46.7161 221.692 46.2321 221.889 45.6891C222.567 43.8107 222.088 43.227 222.654 40.3512L221.236 36.3613C221.236 36.3613 221.47 40.8043 220.159 41.9729C218.848 43.1415 214.788 44.2287 214.151 45.2051C213.843 45.6737 213.641 46.1437 213.582 46.5211Z" fill="#992525"/>
<path d="M216.953 44.6528C216.953 44.6528 214.052 44.0075 213.584 44.2646C213.116 44.5219 211.972 45.4584 211.828 45.7844C211.685 46.1103 212.871 45.5371 213.256 45.4337C213.506 45.3667 214.163 45.5949 214.489 45.7033C215.858 46.1592 216.697 45.9247 216.697 45.9247L216.953 44.6528Z" fill="#FFB27D"/>
<path d="M218.896 28.4082C218.896 28.4082 222.791 28.6479 224.14 30.5268C226.038 33.1717 229.804 44.4436 227.646 45.947C225.215 47.6399 216.584 46.3899 216.584 46.3899C216.584 46.3899 216.297 45.0487 216.697 44.4C217.096 43.7512 223.591 42.7032 223.89 42.4038C224.19 42.1044 220.144 36.565 220.144 35.6669C220.144 34.7687 218.896 28.4082 218.896 28.4082Z" fill="#E4002B"/>
<path d="M213.444 45.0713C213.444 45.0713 212.836 45.8548 212.637 45.9484C212.437 46.0419 212.309 46.0185 212.309 46.0185L212.718 45.2818L213.444 45.0713Z" fill="#FFB27D"/>
<path d="M213.584 44.2646L211.816 45.1223C211.816 45.1223 211.892 45.2452 212.109 45.2354C212.327 45.2255 212.876 45.0249 212.876 45.0249L213.584 44.2646Z" fill="#FFB27D"/>
<path d="M212.635 47.1483H198.655L194.449 36.7012H208.408L212.635 47.1483Z" fill="#163560"/>
<path d="M198.492 46.7412H216.953V47.1482H198.656L198.492 46.7412Z" fill="#11294A"/>
<path d="M202.183 41.925C202.078 41.5577 202.29 41.2598 202.658 41.2598C203.026 41.2598 203.41 41.5576 203.515 41.925C203.621 42.2923 203.408 42.5902 203.04 42.5902C202.672 42.5902 202.289 42.2924 202.183 41.925Z" fill="white"/>
<path d="M268.364 138.337H0.453736C0.257841 138.337 0.0976562 138.177 0.0976562 137.982C0.0976562 137.786 0.257934 137.626 0.453736 137.626H268.364C268.56 137.626 268.721 137.786 268.721 137.982C268.721 138.177 268.56 138.337 268.364 138.337Z" fill="#2E3552"/>
</svg>
