<svg width="49" height="48" viewBox="0 0 49 48" fill="none" xmlns="http://www.w3.org/2000/svg">
<path d="M48.5037 23.998C48.5037 30.6281 45.8184 36.6271 41.4712 40.9707C37.1308 45.3143 31.1285 48 24.5016 48C11.248 48 0.5 37.2553 0.5 23.9984C0.5 17.3715 3.18525 11.3724 7.53253 7.02885C11.8729 2.68525 17.8752 0 24.502 0C31.1289 0 37.1312 2.68525 41.4716 7.02885C45.8184 11.372 48.5037 17.3707 48.5037 23.998Z" fill="#4FC646"/>
<path d="M38.5266 9.96641L20.9812 38.3713C20.6275 38.9443 19.8042 38.9717 19.4129 38.4241L10.4938 25.9397C10.1727 25.4902 10.6925 24.9214 11.169 25.2007L19.6157 30.1541L37.705 9.36114C38.118 8.88715 38.857 9.43148 38.5266 9.96641Z" fill="white"/>
</svg>
