<svg width="34" height="40" viewBox="0 0 34 40" fill="none" xmlns="http://www.w3.org/2000/svg">
<path d="M31.025 0.426758H4.625C2.3513 0.426758 0.5 2.24748 0.5 4.48724V35.3469C0.5 37.5867 2.3513 39.4074 4.625 39.4074H31.025C32.3895 39.4074 33.5 38.3143 33.5 36.9711V2.86305C33.5 1.51984 32.3895 0.426758 31.025 0.426758ZM4.625 2.05095H7.1V31.2864H4.625C3.6977 31.2864 2.8397 31.5902 2.15 32.1001V4.48724C2.15 3.14403 3.26045 2.05095 4.625 2.05095ZM31.85 36.9711C31.85 37.4178 31.4787 37.7832 31.025 37.7832H4.625C3.26045 37.7832 2.15 36.6901 2.15 35.3469C2.15 34.0037 3.26045 32.9106 4.625 32.9106H31.85V36.9711ZM31.85 19.9171H26.075C24.7104 19.9171 23.6 18.824 23.6 17.4808C23.6 16.1376 24.7104 15.0445 26.075 15.0445H31.85V19.9171ZM26.075 13.4203C23.7996 13.4203 21.95 15.241 21.95 17.4808C21.95 19.7205 23.7996 21.5413 26.075 21.5413H31.85V31.2864H8.75V2.05095H31.025C31.4787 2.05095 31.85 2.41639 31.85 2.86305V13.4203H26.075Z" fill="black"/>
</svg>
