<svg width="40" height="37" viewBox="0 0 40 37" fill="none" xmlns="http://www.w3.org/2000/svg">
<path d="M35.4375 0.142578H4.5625C2.32325 0.142578 0.5 1.97767 0.5 4.23146V36.1247H39.5V4.23146C39.5 1.97767 37.6768 0.142578 35.4375 0.142578ZM37.875 4.23146V9.95588H27.852L35.9283 1.8272C37.0381 2.05617 37.875 3.04732 37.875 4.23146ZM25.8207 1.77813H33.6792L25.6209 9.88883L25.6875 9.95588H17.6958L25.8207 1.77813ZM15.5313 9.95588H7.5395L15.6645 1.77813H23.523L15.4646 9.88883L15.5313 9.95588ZM4.5625 1.77813H13.3668L5.24175 9.95588H2.125V4.23146C2.125 2.87885 3.21863 1.77813 4.5625 1.77813ZM2.125 34.4892V11.5914H37.875V34.4892H2.125ZM15.125 30.2089L26.9956 23.0403L15.125 15.8717V30.2106V30.2089ZM16.75 18.7601L23.8383 23.0403L16.75 27.3205V18.7601Z" fill="black"/>
</svg>
