<svg width="40" height="40" viewBox="0 0 40 40" fill="none" xmlns="http://www.w3.org/2000/svg">
<path d="M28.9375 18.4384C23.12 18.4384 18.375 23.181 18.375 28.9956C18.375 34.8103 23.12 39.5529 28.9375 39.5529C34.755 39.5529 39.5 34.8103 39.5 28.9956C39.5 23.181 34.755 18.4384 28.9375 18.4384ZM28.9375 37.9287C24.0138 37.9287 20 33.917 20 28.9956C20 24.0743 24.0138 20.0626 28.9375 20.0626C33.8613 20.0626 37.875 24.0743 37.875 28.9956C37.875 33.917 33.8613 37.9287 28.9375 37.9287ZM33.91 27.274C34.8525 28.216 34.8525 29.7753 33.91 30.7173L30.3837 34.2418L29.23 33.0886L32.5125 29.8077H23.2338V28.1836H32.5125L29.36 25.0326L30.5138 23.8794L33.91 27.274ZM2.125 33.0561V5.44485C2.125 3.65823 3.5875 2.19646 5.375 2.19646H7V13.5658H24.875V2.19646H25.5575L33 9.63526V20.0626C33.5525 20.2412 34.105 20.6483 34.625 20.892V8.9531L26.2238 0.572266H5.375C2.69375 0.572266 0.5 2.76493 0.5 5.44485V34.6803H20.8298C20.586 34.1606 20.1788 33.6084 20 33.0561H2.125ZM23.25 11.9416H8.625V2.19646H23.25V11.9416Z" fill="black"/>
<mask id="path-2-inside-1_98_1474" fill="white">
<path d="M18.7594 29.2231C17.7314 29.2225 16.722 28.9493 15.8341 28.4313C14.9461 27.9133 14.2115 27.1691 13.705 26.2745C13.1986 25.3799 12.9385 24.3671 12.9512 23.3392C12.9639 22.3113 13.2491 21.3051 13.7775 20.4234C14.306 19.5416 15.0588 18.8158 15.9593 18.32C16.8598 17.8241 17.8757 17.576 18.9034 17.6009C19.931 17.6257 20.9337 17.9227 21.8092 18.4615C22.6846 19.0004 23.4015 19.7617 23.8867 20.668L22.6435 21.3336C22.276 20.6472 21.7331 20.0705 21.07 19.6625C20.407 19.2544 19.6476 19.0294 18.8692 19.0106C18.0909 18.9918 17.3215 19.1797 16.6395 19.5552C15.9575 19.9308 15.3873 20.4805 14.9871 21.1483C14.5868 21.8161 14.3709 22.5781 14.3613 23.3566C14.3516 24.1351 14.5486 24.9023 14.9322 25.5798C15.3157 26.2573 15.8722 26.821 16.5446 27.2133C17.2171 27.6056 17.9816 27.8125 18.7602 27.813L18.7594 29.2231Z"/>
</mask>
<path d="M18.7594 29.2231C17.7314 29.2225 16.722 28.9493 15.8341 28.4313C14.9461 27.9133 14.2115 27.1691 13.705 26.2745C13.1986 25.3799 12.9385 24.3671 12.9512 23.3392C12.9639 22.3113 13.2491 21.3051 13.7775 20.4234C14.306 19.5416 15.0588 18.8158 15.9593 18.32C16.8598 17.8241 17.8757 17.576 18.9034 17.6009C19.931 17.6257 20.9337 17.9227 21.8092 18.4615C22.6846 19.0004 23.4015 19.7617 23.8867 20.668L22.6435 21.3336C22.276 20.6472 21.7331 20.0705 21.07 19.6625C20.407 19.2544 19.6476 19.0294 18.8692 19.0106C18.0909 18.9918 17.3215 19.1797 16.6395 19.5552C15.9575 19.9308 15.3873 20.4805 14.9871 21.1483C14.5868 21.8161 14.3709 22.5781 14.3613 23.3566C14.3516 24.1351 14.5486 24.9023 14.9322 25.5798C15.3157 26.2573 15.8722 26.821 16.5446 27.2133C17.2171 27.6056 17.9816 27.8125 18.7602 27.813L18.7594 29.2231Z" stroke="black" stroke-width="4" mask="url(#path-2-inside-1_98_1474)"/>
</svg>
