<svg width="40" height="40" viewBox="0 0 40 40" fill="none" xmlns="http://www.w3.org/2000/svg">
<path d="M33.8125 10.4561H31.375V6.39561C31.375 3.26092 28.8237 0.710938 25.6875 0.710938H11.0625C7.92625 0.710938 5.375 3.26092 5.375 6.39561V16.1408C5.375 16.9951 5.56675 17.8267 5.9275 18.5836C2.9115 18.72 0.5 21.2148 0.5 24.2617V34.0069C0.5 37.1416 3.05125 39.6916 6.1875 39.6916H20.8125C23.9487 39.6916 26.5 37.1416 26.5 34.0069V31.5706H33.8125C36.9487 31.5706 39.5 29.0206 39.5 25.8859V16.1408C39.5 13.0061 36.9487 10.4561 33.8125 10.4561ZM7 6.39561C7 4.15585 8.82325 2.33513 11.0625 2.33513H25.6875C27.9268 2.33513 29.75 4.15585 29.75 6.39561V10.4561H19.1875C16.0513 10.4561 13.5 13.0061 13.5 16.1408V18.5771H7.81412C7.28762 17.877 7 17.0243 7 16.1408V6.39561ZM20.8125 20.2013C21.8476 20.2013 22.795 20.5911 23.5132 21.231L23.4889 21.2521L15.6938 29.0434C14.5286 30.2079 12.499 30.2079 11.3355 29.0434L3.52412 21.2391L3.50138 21.218C4.218 20.5862 5.15725 20.2013 6.18588 20.2013H20.8125ZM24.875 34.0069C24.875 36.2467 23.0518 38.0674 20.8125 38.0674H6.1875C3.94825 38.0674 2.125 36.2467 2.125 34.0069V24.2617C2.125 23.6413 2.26475 23.0533 2.515 22.5271L10.185 30.1933C11.0739 31.0817 12.2553 31.5722 13.513 31.5722C14.7708 31.5722 15.9521 31.0834 16.841 30.1933L24.4915 22.5466C24.7352 23.068 24.8734 23.6494 24.8734 24.2634V34.0085L24.875 34.0069ZM37.875 25.8859C37.875 28.1257 36.0518 29.9464 33.8125 29.9464H26.5V24.2617C26.5 21.127 23.9487 18.5771 20.8125 18.5771H15.125V16.1408C15.125 13.901 16.9482 12.0803 19.1875 12.0803H33.8125C36.0518 12.0803 37.875 13.901 37.875 16.1408V25.8859ZM34.625 16.9529C34.625 17.8494 33.897 18.5771 33 18.5771C32.103 18.5771 31.375 17.8494 31.375 16.9529C31.375 16.0563 32.103 15.3287 33 15.3287C33.897 15.3287 34.625 16.0563 34.625 16.9529Z" fill="black"/>
</svg>
