<svg width="38" height="37" viewBox="0 0 38 37" fill="none" xmlns="http://www.w3.org/2000/svg">
<path d="M8.20833 9.41856C8.20833 8.57919 8.899 7.89796 9.75 7.89796C10.601 7.89796 11.2917 8.57919 11.2917 9.41856C11.2917 10.2579 10.601 10.9392 9.75 10.9392C8.899 10.9392 8.20833 10.2579 8.20833 9.41856ZM37.5 4.09644V30.7071H26.659L20.5155 35.7175C20.0915 36.09 19.5504 36.277 19.0062 36.277C18.4573 36.277 17.9039 36.0855 17.463 35.6992L11.4551 30.7071H0.5V4.09644C0.5 1.99952 2.22975 0.294922 4.35417 0.294922H33.6458C35.7718 0.294922 37.5 1.99952 37.5 4.09644ZM2.04167 4.09644V28.1114L17.4583 12.9053L23.625 18.9877L35.9583 6.82289V4.09644C35.9583 2.8389 34.9208 1.81553 33.6458 1.81553H4.35417C3.07921 1.81553 2.04167 2.8389 2.04167 4.09644ZM35.9583 29.1865V8.97303L23.625 21.1379L17.4583 15.0555L3.13163 29.1865H12.0178L18.4728 34.5481C18.7795 34.8188 19.2189 34.8218 19.5134 34.5618L26.1055 29.1865H35.9583Z" fill="black"/>
</svg>
