<svg width="38" height="35" viewBox="0 0 38 35" fill="none" xmlns="http://www.w3.org/2000/svg">
<path d="M30.5625 3.93117H19.7246C19.37 3.93117 19.0154 3.85394 18.6917 3.68402L13.82 1.24342C13.2804 0.980819 12.6946 0.841797 12.0933 0.841797H7.42208C3.61417 0.841797 0.5 3.96207 0.5 7.79289V27.8738C0.5 31.7046 3.61417 34.8249 7.4375 34.8249H30.5625C34.3858 34.8249 37.5 31.7046 37.5 27.8738V10.8823C37.5 7.05144 34.3858 3.93117 30.5625 3.93117ZM7.4375 2.38648H12.1088C12.4633 2.38648 12.8179 2.46372 13.1417 2.63363L18.0133 5.07424C18.5529 5.33684 19.1387 5.47586 19.74 5.47586H30.5779C33.2912 5.47586 35.5421 7.4994 35.9121 10.1099H2.04167V7.79289C2.04167 4.81164 4.46208 2.38648 7.4375 2.38648ZM30.5625 33.2802H7.4375C4.46208 33.2802 2.04167 30.8551 2.04167 27.8738V11.6546H35.9583V27.8738C35.9583 30.8551 33.5379 33.2802 30.5625 33.2802ZM28.25 21.6951C28.25 22.4674 27.9571 23.2398 27.3558 23.8267L23.3937 27.7194C23.2396 27.8584 23.0546 27.9356 22.8542 27.9356C22.6537 27.9356 22.4533 27.8584 22.2992 27.7039C22.0062 27.395 22.0062 26.9161 22.2992 26.6072L26.2612 22.73C26.3537 22.6373 26.4154 22.5447 26.4771 22.452H12.0625C11.6308 22.452 11.2917 22.1121 11.2917 21.6796C11.2917 21.2471 11.6308 20.9073 12.0625 20.9073H26.4925C26.4308 20.7992 26.3537 20.7065 26.2612 20.6138L22.2992 16.7366C21.9908 16.4431 21.9908 15.9488 22.2992 15.6399C22.5921 15.331 23.0854 15.331 23.3937 15.6399L27.3558 19.5171C27.9417 20.104 28.25 20.8918 28.25 21.6642V21.6951Z" fill="black"/>
</svg>
